<?xml version="1.0" encoding="utf-8"?>
<!-- Generator: Adobe Illustrator 27.5.0, SVG Export Plug-In . SVG Version: 6.00 Build 0)  -->
<svg version="1.1" xmlns="http://www.w3.org/2000/svg" xmlns:xlink="http://www.w3.org/1999/xlink" x="0px" y="0px"
	 viewBox="0 0 595.276 841.89" style="enable-background:new 0 0 595.276 841.89;" xml:space="preserve">
<g id="BACKGROUND">
	<rect x="-8.504" y="-8.504" style="fill:#FFFFFF;" width="612.283" height="858.898"/>
</g>
<g id="OBJECTS">
	<g>
		<defs>
			<rect id="SVGID_1_" x="-8.504" y="-8.504" width="612.283" height="858.898"/>
		</defs>
		<clipPath id="SVGID_00000166644107078385204570000008884199979358103951_">
			<use xlink:href="#SVGID_1_"  style="overflow:visible;"/>
		</clipPath>
		<g style="clip-path:url(#SVGID_00000166644107078385204570000008884199979358103951_);">
			<g>
				<g style="opacity:0.42;">
					<g>
						<path style="fill:#D4B096;" d="M599.489,904.78c-16.545,0.2-31.345-3.866-45.33-11.35
							c-12.572-6.728-21.595-16.779-28.092-29.269c-1.885-3.625-3.738-7.296-5.211-11.099c-1.871-4.83-4.959-8.177-9.805-10.076
							c-2.929-1.148-5.783-2.546-8.534-4.078c-9.943-5.539-14.985-14.234-15.444-25.445c-0.484-11.817,3.989-21.948,11.741-30.649
							c3.26-3.659,6.86-7.027,10.426-10.399c2.741-2.591,5.981-4.262,9.876-4.38c0.567-0.017,1.181-0.149,1.683-0.405
							c4.321-2.201,8.644-4.399,12.921-6.684c4.07-2.174,7.071-5.423,9.545-9.318c2.438-3.838,5.081-7.569,7.898-11.138
							c5.915-7.492,14.034-11.874,22.682-15.358c12.668-5.104,25.702-8.936,39.269-10.776c19.928-2.703,38.797,0.489,56.335,10.485
							c3.116,1.776,6.005,4.074,8.67,6.495c5.31,4.823,7.479,11.047,7.052,18.151c-0.295,4.896-0.798,9.779-1.145,14.672
							c-0.254,3.575,0.783,6.852,2.766,9.779c2.392,3.53,4.963,6.939,7.397,10.442c7.892,11.358,13.248,23.628,13.392,37.735
							c0.121,11.853-3.337,22.518-11.15,31.497c-5.349,6.148-12.498,9.761-19.998,12.582c-6.012,2.261-12.114,4.296-18.229,6.266
							c-7.92,2.55-14.669,6.795-20.284,12.969c-3.062,3.367-6.305,6.601-9.716,9.612c-6.164,5.441-13.64,7.995-21.669,9.073
							C603.99,904.457,601.417,904.603,599.489,904.78z"/>
						<path style="fill:#D4B096;" d="M534.596,691.401c1.983-0.123,4.789-0.194,7.57-0.493c3.827-0.411,6.854-2.576,9.737-4.899
							c3.742-3.015,7.803-5.342,12.55-6.347c7.721-1.635,14.462,0.484,20.382,5.462c2.666,2.242,3.876,5.385,4.54,8.702
							c0.446,2.229-1.063,3.726-3.625,3.495c-5.66-0.51-10.855,1.215-15.941,3.258c-11.679,4.692-20.442,12.589-25.553,24.211
							c-3.243,7.374-8.364,12.725-15.87,15.743c-0.811,0.326-1.662,0.654-2.346,1.175c-1.792,1.365-3.756,2.621-5.193,4.311
							c-2.978,3.502-6.767,5.503-11.024,6.801c-4.748,1.447-9.553,2.711-14.273,4.239c-3.537,1.145-6.669,3.097-9.414,5.631
							c-1.987,1.834-2.889,3.987-2.361,6.763c0.457,2.405,0.701,4.858,0.922,7.3c0.273,3.015-0.507,5.796-2.188,8.316
							c-0.422,0.632-0.803,1.309-1.32,1.855c-3.07,3.243-4.455,6.999-4.642,11.534c-0.116,2.811-1.383,5.628-2.414,8.336
							c-1.704,4.474-3.743,8.82-5.442,13.295c-2.363,6.224-1.277,12.163,2.86,17.153c3.218,3.88,7.111,7.228,10.881,10.614
							c2.514,2.258,5.445,4.049,7.997,6.27c2.363,2.056,4.28,4.526,4.44,7.879c0.147,3.091-1.62,5.051-4.728,5.003
							c-1.791-0.027-3.599-0.373-5.358-0.761c-7.417-1.634-14.86-3.172-22.216-5.049c-18.073-4.611-25.786-21.005-18.04-38.045
							c1.209-2.659,2.475-5.295,3.587-7.995c1.441-3.499,1.693-7.113,0.879-10.836c-0.423-1.934-0.695-3.917-0.835-5.893
							c-0.265-3.741,0.698-7.176,2.922-10.234c2.571-3.534,4.922-7.216,5.015-11.751c0.1-4.908,0.015-9.823-0.129-14.731
							c-0.199-6.747,0.103-13.424,1.816-20.002c1.941-7.458,6.887-11.981,14.024-14.088c5.707-1.685,11.577-2.813,17.342-4.311
							c2.992-0.778,5.924-1.79,8.864-2.756c5.631-1.852,9.876-5.442,12.926-10.484c1.876-3.101,3.674-6.251,5.607-9.316
							c1.181-1.874,2.474-3.69,3.856-5.421c1.967-2.464,4.668-3.68,7.765-3.911C530.023,691.288,531.901,691.401,534.596,691.401z"
							/>
						<path style="fill:#D4B096;" d="M703.937,759.979c-2.233-1.776,2.67-13.342,1.211-19.044c-0.658-2.572-1.817-4.84-3.915-6.48
							c-3.425-2.678-5.304-6.139-5.671-10.449c-0.482-5.672-3.717-8.98-9.016-10.538c-1.343-0.395-2.675-0.832-3.994-1.303
							c-5.83-2.08-7.312-7.689-3.072-12.232c4.003-4.288,9.058-5.394,14.619-3.84c4.531,1.266,8.219,3.881,10.917,7.783
							c0.996,1.441,1.932,2.927,2.844,4.423c2.204,3.613,5.19,6.19,9.208,7.717c2.591,0.984,5.194,2.183,7.443,3.777
							c6.378,4.519,7.265,11.279,2.26,17.259c-3.292,3.933-6.148,7.985-7.862,12.916C717.419,754.26,706.17,761.755,703.937,759.979
							z"/>
						<path style="fill:#D4B096;" d="M675.813,911.499c-0.869-0.191-2.565-0.403-4.149-0.942c-3.524-1.2-5.504-3.756-5.546-7.493
							c-0.029-2.543-0.887-4.621-2.38-6.606c-2.794-3.716-2.147-7.292,1.985-9.494c5.399-2.875,11.199-4.213,17.39-3.644
							c2.901,0.267,5.829,0.216,8.742,0.362c1.043,0.052,2.111,0.138,3.11,0.416c3.237,0.899,4.811,3.456,4.43,6.795
							c-0.284,2.488-0.497,4.99-0.609,7.491c-0.122,2.747-1.528,4.728-3.519,6.397C689.881,909.297,683.517,911.113,675.813,911.499
							z"/>
						<path style="fill:#D4B096;" d="M522.71,892.411c3.394,0.462,6.727,1.609,8.696,5.213c0.202,0.369,0.716,0.573,1.095,0.839
							c3.585,2.527,7.742,3.075,11.95,3.499c2.622,0.264,5.193,0.743,7.406,2.37c3.349,2.463,3.718,6.085,0.745,8.964
							c-4.459,4.318-9.61,6.609-15.915,4.828c-1.27-0.359-2.598-0.906-3.608-1.726c-4.222-3.421-9.125-4.758-14.407-5.241
							c-2.741-0.251-5.184-1.339-7.093-3.424c-2.613-2.854-3.471-8.125,0.672-11.296C515.248,894.144,518.517,892.64,522.71,892.411
							z"/>
						<path style="fill:#D4B096;" d="M631.16,700.725c-1.049-0.188-2.213-0.198-3.21-0.612c-3.068-1.274-6.15-1.116-9.293-0.464
							c-0.795,0.165-1.621,0.231-2.435,0.244c-5.055,0.08-7.851-4.429-5.353-8.875c2.4-4.273,6.447-6.162,11.141-6.614
							c1.826-0.176,3.728,0.13,5.562,0.423c3.211,0.513,6.39,1.221,9.594,1.781c2.408,0.421,4.453,1.454,5.208,3.858
							c0.743,2.365-0.261,4.211-2.002,6.082C637.808,699.303,634.707,700.242,631.16,700.725z"/>
						<path style="fill:#D4B096;" d="M727.67,787.995c-2.915-0.226-6.836-1.783-10.568-3.674c-2.839-1.438-3.535-5.427-1.595-7.928
							c1.892-2.438,4.458-3.926,7.549-4.325c1.524-0.196,2.996-0.15,4.087,1.343c0.279,0.382,1.257,0.294,1.919,0.346
							c1.85,0.144,3.754,0.02,5.544,0.419c3.352,0.746,4.882,3.657,3.935,6.975C737.382,785.211,733.465,788.036,727.67,787.995z"/>
					</g>
				</g>
				<g style="opacity:0.42;">
					<g>
						<path style="fill:#D4B096;" d="M62.521,128.054c-16.545,0.201-31.345-3.866-45.33-11.35
							C4.62,109.976-4.404,99.925-10.9,87.435c-1.885-3.625-3.738-7.296-5.211-11.099c-1.871-4.83-4.959-8.177-9.805-10.076
							c-2.929-1.148-5.783-2.546-8.534-4.078c-9.944-5.539-14.985-14.234-15.444-25.445c-0.484-11.818,3.989-21.948,11.741-30.649
							c3.26-3.659,6.86-7.027,10.426-10.399c2.741-2.591,5.981-4.262,9.876-4.38c0.567-0.017,1.181-0.149,1.683-0.404
							c4.321-2.201,8.644-4.399,12.921-6.684c4.07-2.174,7.071-5.424,9.545-9.318c2.438-3.838,5.081-7.569,7.898-11.138
							c5.916-7.492,14.034-11.874,22.682-15.358c12.668-5.104,25.702-8.936,39.27-10.776c19.928-2.703,38.797,0.489,56.335,10.485
							c3.116,1.776,6.006,4.074,8.67,6.494c5.31,4.823,7.48,11.048,7.051,18.151c-0.295,4.896-0.798,9.779-1.145,14.672
							c-0.254,3.575,0.783,6.852,2.766,9.779c2.392,3.53,4.963,6.939,7.397,10.442c7.892,11.358,13.248,23.628,13.392,37.735
							c0.121,11.853-3.337,22.518-11.15,31.497c-5.35,6.148-12.498,9.761-19.998,12.582c-6.012,2.261-12.114,4.297-18.229,6.266
							c-7.92,2.55-14.669,6.795-20.284,12.969c-3.062,3.367-6.305,6.601-9.716,9.612c-6.164,5.441-13.64,7.995-21.669,9.073
							C67.022,127.731,64.45,127.877,62.521,128.054z"/>
						<path style="fill:#D4B096;" d="M-2.371-85.326c1.983-0.123,4.789-0.194,7.57-0.493c3.827-0.411,6.854-2.576,9.737-4.899
							c3.742-3.015,7.803-5.342,12.55-6.347c7.721-1.635,14.462,0.484,20.381,5.462c2.666,2.242,3.876,5.385,4.54,8.702
							c0.446,2.229-1.062,3.726-3.625,3.495c-5.66-0.51-10.855,1.215-15.941,3.258C21.162-71.456,12.399-63.559,7.288-51.937
							c-3.243,7.373-8.364,12.725-15.87,15.743c-0.811,0.326-1.662,0.654-2.347,1.175c-1.792,1.365-3.756,2.621-5.193,4.311
							c-2.978,3.501-6.767,5.503-11.024,6.801c-4.748,1.447-9.553,2.711-14.273,4.239c-3.537,1.145-6.669,3.097-9.414,5.631
							c-1.987,1.834-2.889,3.987-2.361,6.763c0.457,2.405,0.701,4.858,0.922,7.3c0.273,3.015-0.507,5.796-2.188,8.316
							c-0.422,0.632-0.804,1.309-1.32,1.855c-3.07,3.243-4.455,6.999-4.642,11.534c-0.116,2.811-1.383,5.628-2.414,8.336
							c-1.704,4.474-3.743,8.82-5.442,13.295c-2.363,6.224-1.277,12.163,2.86,17.153c3.218,3.881,7.111,7.228,10.881,10.614
							c2.514,2.258,5.445,4.049,7.997,6.27c2.363,2.056,4.28,4.526,4.44,7.879c0.147,3.091-1.62,5.051-4.728,5.004
							c-1.791-0.027-3.599-0.373-5.358-0.761c-7.417-1.634-14.86-3.172-22.216-5.049c-18.073-4.611-25.786-21.005-18.04-38.045
							c1.209-2.659,2.475-5.295,3.587-7.995c1.441-3.499,1.693-7.113,0.879-10.836c-0.423-1.934-0.695-3.917-0.835-5.893
							c-0.265-3.741,0.699-7.176,2.923-10.234c2.571-3.534,4.922-7.216,5.015-11.751c0.1-4.908,0.015-9.823-0.129-14.731
							c-0.199-6.748,0.103-13.424,1.816-20.002c1.941-7.458,6.887-11.981,14.024-14.088c5.707-1.685,11.577-2.813,17.342-4.311
							c2.992-0.778,5.924-1.79,8.864-2.757c5.631-1.852,9.876-5.442,12.926-10.484c1.876-3.101,3.674-6.251,5.607-9.316
							c1.181-1.874,2.474-3.69,3.856-5.421c1.967-2.464,4.668-3.68,7.765-3.91C-6.944-85.438-5.066-85.326-2.371-85.326z"/>
						<path style="fill:#D4B096;" d="M166.97-16.747c-2.234-1.776,2.67-13.342,1.211-19.044c-0.658-2.572-1.817-4.84-3.915-6.48
							c-3.425-2.678-5.304-6.139-5.671-10.449c-0.482-5.672-3.717-8.98-9.016-10.538c-1.343-0.395-2.676-0.832-3.994-1.303
							c-5.83-2.08-7.312-7.689-3.072-12.232c4.003-4.288,9.058-5.394,14.619-3.84c4.531,1.266,8.219,3.881,10.917,7.783
							c0.996,1.441,1.932,2.927,2.844,4.423c2.204,3.613,5.19,6.19,9.208,7.717c2.591,0.984,5.194,2.183,7.443,3.777
							c6.378,4.519,7.265,11.278,2.26,17.259c-3.292,3.933-6.148,7.985-7.862,12.916C180.452-22.467,169.203-14.971,166.97-16.747z"
							/>
						<path style="fill:#D4B096;" d="M138.845,134.772c-0.869-0.191-2.565-0.403-4.149-0.942c-3.524-1.2-5.504-3.756-5.546-7.493
							c-0.029-2.543-0.887-4.621-2.38-6.606c-2.794-3.716-2.147-7.292,1.985-9.493c5.399-2.876,11.199-4.213,17.39-3.644
							c2.901,0.266,5.829,0.216,8.742,0.362c1.043,0.052,2.111,0.138,3.11,0.416c3.236,0.899,4.811,3.456,4.43,6.795
							c-0.284,2.488-0.497,4.99-0.609,7.491c-0.122,2.747-1.528,4.728-3.519,6.397C152.913,132.571,146.55,134.387,138.845,134.772z
							"/>
						<path style="fill:#D4B096;" d="M-14.257,115.684c3.394,0.462,6.727,1.609,8.696,5.213c0.202,0.369,0.716,0.573,1.095,0.84
							c3.585,2.527,7.742,3.075,11.95,3.499c2.622,0.264,5.192,0.743,7.406,2.37c3.349,2.463,3.718,6.085,0.744,8.964
							c-4.459,4.318-9.61,6.609-15.915,4.828c-1.27-0.359-2.598-0.907-3.608-1.725c-4.222-3.421-9.125-4.758-14.407-5.241
							c-2.741-0.251-5.184-1.339-7.093-3.424c-2.613-2.854-3.471-8.125,0.672-11.296C-21.719,117.418-18.451,115.913-14.257,115.684
							z"/>
						<path style="fill:#D4B096;" d="M94.193-76.002c-1.049-0.188-2.213-0.199-3.209-0.612c-3.068-1.274-6.15-1.116-9.293-0.464
							c-0.795,0.165-1.621,0.231-2.435,0.244c-5.055,0.08-7.851-4.429-5.354-8.875c2.4-4.273,6.447-6.162,11.141-6.614
							c1.826-0.176,3.728,0.13,5.562,0.423c3.211,0.513,6.39,1.221,9.594,1.781c2.408,0.421,4.453,1.454,5.208,3.858
							c0.743,2.365-0.261,4.211-2.002,6.082C100.841-77.424,97.74-76.484,94.193-76.002z"/>
						<path style="fill:#D4B096;" d="M190.703,11.269c-2.915-0.226-6.836-1.783-10.568-3.674c-2.839-1.438-3.535-5.427-1.595-7.928
							c1.892-2.437,4.458-3.926,7.549-4.325c1.523-0.196,2.995-0.15,4.087,1.343c0.279,0.382,1.257,0.294,1.92,0.346
							c1.85,0.144,3.754,0.02,5.544,0.419c3.352,0.746,4.882,3.657,3.935,6.975C200.414,8.484,196.497,11.309,190.703,11.269z"/>
					</g>
				</g>
			</g>
			<g>
				<g style="opacity:0.7;">
					<path style="fill:#8E7C54;" d="M586.226,191.161c0.065-3.476,0.622-6.718,2.295-9.69c0.347-0.616,0.754-1.199,1.154-1.782
						c2.724-3.974,7.309-3.23,10.036-0.844c2.78,2.434,3.799,5.629,4.039,9.145c0.295,4.313-0.509,8.297-3.652,11.559
						c-1.921,1.994-4.307,2.92-6.972,3.048c-2.125,0.102-3.669-1.124-4.751-2.868C586.727,197.076,586.289,194.104,586.226,191.161z
						 M594.936,199.433c1.358-0.6,2.443-1.67,2.989-3.123c1.581-4.204,1.855-8.499,0.426-12.806c-0.643-1.937-2.033-3.26-3.69-4.152
						c-0.109,1.588-0.117,3.11-0.342,4.6c-0.21,1.393-0.778,2.735-0.95,4.129c-0.183,1.486-0.297,3.041-0.063,4.505
						C593.667,194.843,594.35,197.048,594.936,199.433z M593.941,199.822c-0.502-2.025-0.866-3.947-1.468-5.792
						c-0.551-1.689-1.003-3.359-0.72-5.132c0.281-1.761,0.685-3.502,0.961-5.263c0.214-1.359,0.314-2.735,0.465-4.103
						c-0.137-0.042-0.274-0.085-0.411-0.128c-0.483,0.593-1.023,1.15-1.441,1.786c-2.298,3.498-2.888,7.406-2.373,11.452
						c0.226,1.776,0.862,3.536,1.553,5.203C591.015,199.072,592.008,199.988,593.941,199.822z M599.433,180.3
						c2.913,5.756,2.787,11.449,0.768,17.397C604.044,193.382,603.649,184.124,599.433,180.3z"/>
					<path style="fill:#8E7C54;" d="M572.456,171.607c-0.359,4.081-1.91,7.351-5.582,9.301c-2.232,1.186-4.425,0.878-6.422-0.577
						c-3.132-2.282-4.625-5.578-5.422-9.236c-0.67-3.074-0.643-6.139,0.365-9.162c1.082-3.246,3.456-5.045,6.692-5.519
						c1.832-0.268,3.534,0.623,5.001,1.825c3.001,2.457,4.447,5.695,4.878,9.469C572.118,169.038,572.299,170.364,572.456,171.607z
						 M561.129,159.256c0,1.22-0.096,2.339,0.019,3.435c0.297,2.832,1.66,5.289,2.855,7.808c0.697,1.469,1.332,2.983,1.816,4.533
						c0.261,0.836,0.146,1.789,0.2,2.689c0.641-0.61,1.145-1.265,1.426-2.004c1.25-3.291,1.202-6.636,0.175-9.967
						c-0.657-2.13-1.729-4.039-3.476-5.487C563.301,159.565,562.364,159.05,561.129,159.256z M559.948,159.964
						c-0.149-0.036-0.298-0.073-0.446-0.11c-0.398,0.733-0.89,1.432-1.176,2.206c-0.809,2.191-0.813,4.466-0.436,6.738
						c0.529,3.184,1.589,6.144,3.958,8.466c0.714,0.7,1.531,1.291,2.627,1.206c0.499-2.498,0.311-3.814-0.898-6.292
						C561.692,168.316,559.295,164.614,559.948,159.964z M570.381,175.685c0.066-0.129,0.174-0.32,0.263-0.518
						c1.057-2.36,0.802-4.808,0.395-7.235c-0.391-2.337-0.737-4.717-2.345-6.631c-1.411-1.679-3.129-3.5-4.438-3.454
						C569.506,162.644,571.133,168.762,570.381,175.685z"/>
					<path style="fill:#8E7C54;" d="M544.637,180.369c0.197,6.17-3.795,9.753-7.832,11.301c-2.875,1.103-6.236-0.32-8.387-3.221
						c-2.037-2.746-3.026-5.906-3.339-9.245c-0.196-2.09-0.258-4.252,0.053-6.317c0.4-2.658,2.386-4.237,5.082-4.331
						c0.86-0.03,1.782,0.378,2.593,0.762c0.542,0.257,0.918,0.499,1.499,0.097c0.31-0.214,0.773-0.26,1.173-0.282
						c3.622-0.206,5.913,1.768,7.519,4.732C544.193,176.068,544.657,178.475,544.637,180.369z M532.651,170.622
						c-2.096-0.983-4.052-0.396-4.953,1.512c-0.312,0.66-0.53,1.409-0.593,2.134c-0.293,3.395,0.221,6.694,1.467,9.857
						c0.774,1.966,1.847,3.758,3.759,4.858c0.483,0.278,1.031,0.443,1.892,0.804c-0.364-3.119-0.657-5.886-1.019-8.644
						c-0.299-2.279-0.789-4.539-0.979-6.826C532.126,173.125,532.489,171.895,532.651,170.622z M533.833,170.758
						c0,1.998-0.155,3.968,0.039,5.903c0.241,2.397,0.885,4.753,1.139,7.149c0.19,1.786,0.037,3.609,0.037,5.687
						c1.923-1.097,3.28-2.251,3.991-4.023c1.522-3.795,1.329-7.571-0.202-11.314C537.992,172.094,536.581,170.772,533.833,170.758z
						 M541.153,187.017c3.545-3.439,2.22-10.497,0.097-13.193C542.884,178.368,542.916,182.629,541.153,187.017z"/>
					<path style="fill:#8E7C54;" d="M559.208,210.772c0.003,4.201-1.149,7.331-3.471,9.975c-1.995,2.272-4.595,2.916-7.566,2.685
						c-4.525-0.352-6.521-3.358-7.671-7.17c-1.336-4.429-0.564-8.633,1.895-12.519c1.29-2.038,3.169-3.096,5.611-3.096
						c0.296,0,0.622,0.019,0.882-0.092c3.971-1.686,9.016,1.809,9.798,6.45C558.933,208.471,559.096,209.95,559.208,210.772z
						 M547.341,221.025c0.989-0.291,1.886-0.417,2.645-0.809c1.553-0.802,2.785-2.005,3.532-3.611
						c1.832-3.943,2.032-7.966,0.404-12.022c-0.937-2.335-2.291-2.859-4.721-1.901c0.735,1.51,0.761,3.082,0.329,4.676
						c-0.253,0.932-0.516,1.862-0.8,2.785C547.674,213.576,547.132,217.074,547.341,221.025z M547.498,202.29
						c-3.403,1.321-5.522,4.945-5.4,9.187c0.102,3.569,1.128,6.723,4.198,9.243c0.094-1.644,0.061-2.988,0.268-4.293
						c0.442-2.783,1.009-5.547,1.525-8.318C548.454,206.143,548.58,204.203,547.498,202.29z M551.907,221.796
						c3.06-1.085,4.631-3.572,5.539-6.448c1.204-3.817,0.792-7.562-1.173-11.074C558.7,211.695,556.232,218.386,551.907,221.796z"/>
					<path style="fill:#8E7C54;" d="M622.805,205.137c-0.015,2.841-0.176,5.669-1.306,8.335c-1.761,4.155-5.049,5.584-9.25,3.97
						c-1.139-0.437-2.278-0.946-3.297-1.606c-2.011-1.305-2.554-3.436-2.66-5.638c-0.146-3.065,0.109-6.12,1.324-8.983
						c1.382-3.257,3.634-5.701,7.259-6.278c1.172-0.187,2.616,0.198,3.694,0.775c2.935,1.57,4.064,4.317,4.232,7.523
						C622.833,203.868,622.805,204.503,622.805,205.137z M615.675,215.584c2.255-0.466,3.364-1.976,3.942-3.854
						c1.12-3.642,1.443-7.384,0.907-11.171c-0.213-1.502-1.698-2.933-2.933-3.176c-0.19,1.32-0.28,2.676-0.599,3.976
						c-0.389,1.584-0.977,3.119-1.469,4.678C614.52,209.213,615.063,212.347,615.675,215.584z M614.005,215.613
						c0.163-0.139,0.326-0.278,0.489-0.416c0.013-0.11,0.046-0.221,0.035-0.328c-0.023-0.22-0.064-0.439-0.107-0.657
						c-0.607-3.063-0.784-6.108,0.238-9.135c0.546-1.617,1.049-3.251,1.508-4.896c0.29-1.042,0.363-2.1-0.631-3.24
						c-0.852,0.794-1.767,1.446-2.428,2.296c-2.991,3.851-3.088,10.653-0.287,14.644
						C613.223,214.453,613.611,215.036,614.005,215.613z M608.873,201.433c-1.702,2.844-2.193,8.152-1.113,11.156
						c0.477,1.326,1.268,2.359,2.666,2.879C607.372,211.051,607.446,206.32,608.873,201.433z"/>
					<path style="fill:#8E7C54;" d="M593.588,157.419c0.401,6.845-5.175,10.196-9.936,9.54c-2.757-0.38-4.803-2.174-5.847-4.717
						c-1.978-4.814-1.51-9.55,1.072-14.059c1.275-2.226,3.797-2.869,6.214-2.344c5.084,1.104,7.157,4.767,8.156,9.383
						C593.402,155.946,593.476,156.687,593.588,157.419z M582.931,148.181c-0.077-0.092-0.154-0.185-0.232-0.277
						c-0.476,0.355-1.039,0.637-1.414,1.078c-2.481,2.924-2.69,9.606-0.368,12.678c1.036,1.371,2.334,2.435,4.217,2.335
						c0.803-0.043,1.307-0.34,1.191-1.318c-0.266-2.23-0.55-4.461-1.976-6.297C582.411,153.883,581.991,151.163,582.931,148.181z
						 M583.967,148.445c-1.023,2.136-0.799,4.517,0.664,6.395c1.167,1.499,1.988,3.144,2.29,5.023
						c0.157,0.975,0.237,1.963,0.355,2.98C590.793,160.528,588.639,150.568,583.967,148.445z M591.433,162.424
						c2.983-4.376-0.353-13.254-3.678-13.918C591.388,154.476,592.379,157.82,591.433,162.424z"/>
					<path style="fill:#8E7C54;" d="M586.185,225.401c0.032-2.778,0.517-5.437,1.774-7.914c1.553-3.06,4.335-4.728,7.389-4.416
						c2.367,0.242,3.959,1.854,5.442,3.46c4.203,4.552,4.146,14.269-0.638,18.752c-1.851,1.734-3.766,2.238-6.083,1.695
						c-4.33-1.013-6.534-4.041-7.491-8.147C586.319,227.718,586.31,226.546,586.185,225.401z M595.035,215.118
						c-2.71,0.378-4.275,1.676-5.348,3.652c-0.981,1.807-1.416,3.766-1.455,5.799c-0.057,2.997,0.716,5.751,2.638,8.113
						c0.957,1.177,2.21,1.837,3.851,2.271c-0.213-0.689-0.337-1.113-0.476-1.532c-0.85-2.558-1.592-5.156-1.148-7.873
						c0.336-2.051,0.962-4.053,1.365-6.095C594.731,218.09,594.833,216.696,595.035,215.118z M597.065,215.986
						c0.261,2.513-0.508,4.553-1.487,6.485c-2.186,4.313-0.913,8.461,0.399,12.897c0.754-0.389,1.554-0.576,1.992-1.079
						c0.666-0.764,1.246-1.691,1.572-2.648c1.244-3.656,1.284-7.404,0.416-11.142C599.56,218.79,598.834,217.202,597.065,215.986z
						 M602.354,228.513c0.514-2.475,0.497-4.755-0.367-7.005C602.106,223.783,602.225,226.058,602.354,228.513z"/>
					<path style="fill:#8E7C54;" d="M615.027,180.64c-1.789,0.208-3.474-0.604-4.97-1.743c-3.183-2.424-4.893-5.655-4.854-9.704
						c0.023-2.424,0.402-4.788,1.058-7.145c1.149-4.121,8.58-6.886,12.047-2.459c2.2,2.809,3.46,5.852,4.062,9.281
						c0.342,1.946,0.903,3.911,0.254,5.852C621.17,179.068,619.943,180.544,615.027,180.64z M612.255,159.882
						c-0.099-0.051-0.199-0.101-0.298-0.152c-0.499,0.694-1.117,1.331-1.478,2.091c-2.103,4.425-0.592,10.758,3.269,13.814
						c1.319,1.044,2.836,1.467,4.509,1.101c0.724-0.159,1.132-0.517,1.019-1.414c-0.409-3.262-1.357-6.194-4.084-8.352
						C612.951,165.196,611.565,162.952,612.255,159.882z M620.188,175.338c0.222-0.423,0.352-0.639,0.453-0.868
						c0.838-1.915,0.484-3.865,0.156-5.813c-0.558-3.303-1.921-6.187-4.609-8.27c-0.688-0.533-1.654-0.732-2.522-0.983
						c-0.159-0.046-0.641,0.38-0.667,0.62c-0.169,1.586-0.028,3.131,1.096,4.399c0.665,0.75,1.337,1.499,2.067,2.184
						c1.7,1.594,2.895,3.462,3.367,5.767C619.718,173.296,619.937,174.212,620.188,175.338z M607.205,163.153
						c-1.469,4.756-1.536,9.353,1.809,13.457c1.878,2.305,4.354,3.315,7.481,3.033C608.714,176.943,606.493,172.906,607.205,163.153
						z"/>
					<path style="fill:#8E7C54;" d="M581.872,200.036c0.289,3.045-1.021,5.453-3.072,7.5c-2.774,2.769-8.136,2.386-10.716-0.557
						c-4.318-4.924-4.381-12.652-1.948-16.999c1.531-2.736,4.023-4.395,6.56-3.92c2.508,0.47,4.735,1.6,6.146,3.884
						C580.753,193.038,582.031,196.333,581.872,200.036z M571.829,187.746c-2.545,0.794-4.142,2.27-4.74,4.596
						c-1.297,5.046-0.17,9.584,3.205,13.541c0.367,0.431,0.924,0.777,1.463,0.971c1.506,0.545,2.079,0.053,1.694-1.475
						c-0.534-2.12-1.13-4.227-1.764-6.32c-0.644-2.123-1.058-4.242-0.618-6.473C571.367,191.07,571.553,189.531,571.829,187.746z
						 M574.754,206.376c1.057-0.675,1.671-1.852,2.142-3.104c1.009-2.683,0.961-5.473,0.803-8.282
						c-0.113-2.019-0.806-3.77-2.072-5.314c-0.774-0.944-1.728-1.57-3.036-1.691c-0.099,0.848-0.157,1.588-0.275,2.319
						c-0.455,2.81-0.669,5.576,0.279,8.372C573.446,201.19,574.04,203.79,574.754,206.376z M576.798,207.737
						c5.398-3.19,5.017-10.317,2.138-14.957C579.625,197.904,580.473,203.051,576.798,207.737z"/>
					<path style="fill:#8E7C54;" d="M580.473,231.75c-0.008,2.541-0.376,4.519-1.392,6.369c-3.098,5.64-10.107,4.361-12.588,0.427
						c-2.22-3.52-3.383-7.398-3.052-11.567c0.113-1.427,0.687-2.91,1.396-4.174c0.982-1.75,2.661-2.474,4.722-2.717
						c2.803-0.331,5.014,0.707,7.03,2.38c2.132,1.769,3.165,4.18,3.604,6.863C580.349,230.281,580.417,231.247,580.473,231.75z
						 M571.966,239.319c-0.67-3.184-1.261-6.235-1.966-9.259c-0.441-1.892-0.982-3.754-0.554-5.717
						c0.162-0.744,0.367-1.479,0.574-2.302c-1.9,0.018-3.118,0.929-3.868,2.48c-0.856,1.773-1.248,3.632-0.982,5.631
						c0.328,2.464,0.911,4.835,2.26,6.946C568.373,238.574,569.603,239.635,571.966,239.319z M572.483,239.074
						c1.304-0.53,1.922-1.383,2.349-2.407c1.981-4.749,0.978-9.256-1.14-13.661c-0.174-0.361-0.433-0.721-0.743-0.967
						c-0.404-0.321-0.997-0.474-1.146,0.213c-0.343,1.581-0.878,3.208-0.771,4.779c0.189,2.77,0.835,5.505,1.218,8.265
						C572.417,236.493,572.406,237.715,572.483,239.074z M576.466,224.09c0.406,2.472,0.995,5.055,1.216,7.67
						c0.227,2.68-0.291,5.309-1.766,7.855C580.439,236.439,580.562,228.086,576.466,224.09z"/>
					<path style="fill:#8E7C54;" d="M564.407,133.214c0.134,4.151-1.746,7.221-5.128,9.45c-1.884,1.242-6.636,1.29-8.868-0.59
						c-4.073-3.433-5.216-10.751-3.596-14.817c1.002-2.516,2.752-3.71,5.419-3.858c1.17-0.065,2.327-0.428,3.483-0.686
						c2.721-0.607,4.715,0.513,6.276,2.636C563.59,127.52,564.383,130.149,564.407,133.214z M555.488,141.279
						c1.809-0.359,2.754-1.646,3.357-3.089c1.9-4.549,1.221-8.961-1.042-13.201c-0.453-0.85-2.906-1.098-3.561-0.429
						c-0.126,0.129-0.149,0.395-0.157,0.6c-0.071,1.881,0.107,3.806-0.24,5.633C553.144,134.485,554.069,137.835,555.488,141.279z
						 M552.984,125.122c-2.135-0.195-3.526,0.746-4.284,2.726c-1.611,4.204-0.011,9.794,3.627,12.475
						c0.623,0.459,1.412,0.694,2.125,1.032c0.13-0.086,0.261-0.171,0.391-0.257C551.809,136.049,552.946,130.548,552.984,125.122z
						 M559.666,140.839c3.545-3.109,4.098-6.918,3.266-11.032c-0.51-2.524-1.679-4.72-4.322-5.9
						C562.276,129.342,562.834,134.837,559.666,140.839z"/>
					<path style="fill:#8E7C54;" d="M581.371,137.854c-3.894,0.27-6.37-1.934-7.937-5.257c-1.92-4.07-1.632-8.291-0.104-12.404
						c1.103-2.968,3.508-3.977,6.597-3.198c0.912,0.23,1.907,0.147,2.865,0.174c2.62,0.073,4.502,1.333,5.802,3.555
						c1.63,2.785,1.977,5.815,1.669,8.954c-0.087,0.883-0.269,1.764-0.484,2.626C588.947,135.65,585.59,138.068,581.371,137.854z
						 M580.473,136.085c1.104-0.555,2.282-0.865,3.071-1.594c3.546-3.276,4.26-10.138,1.6-14.157
						c-0.851-1.286-2.046-1.858-3.289-1.804c-0.257,1.944-0.281,3.827-0.784,5.573C579.969,127.923,579.62,131.739,580.473,136.085z
						 M579.631,135.636c-0.789-3.574-0.608-6.924,0.085-10.325c0.409-2.004,0.249-4.124,0.355-6.191
						c0.039-0.762-0.411-0.929-1.051-0.964c-1.718-0.094-3.156,0.733-3.887,2.459c-1.784,4.215-1.39,8.313,0.959,12.194
						C576.863,134.081,577.932,135.145,579.631,135.636z M584.878,136.285c1.86-0.808,3.033-2.096,3.697-3.873
						c0.832-2.226,0.867-4.542,0.496-6.83c-0.236-1.455-0.828-2.853-1.26-4.276c-0.104,0.033-0.208,0.066-0.312,0.1
						C588.716,126.681,588.513,131.71,584.878,136.285z"/>
					<path style="fill:#8E7C54;" d="M542.918,145.876c-0.199,2.698-0.615,5.905-3.134,8.193c-4.619,4.195-10.206,3.246-12.917-2.728
						c-1.785-3.934-1.951-8.192-0.514-12.346c0.428-1.236,1.177-2.423,2.012-3.441c1.084-1.321,2.575-1.567,4.266-1.129
						c1.017,0.264,2.133,0.33,3.184,0.243c2.69-0.223,4.227,1.343,5.48,3.354C542.338,139.693,542.897,142.48,542.918,145.876z
						 M533.763,154.613c1.758-0.405,3.217-1.316,3.862-2.941c0.663-1.669,1.104-3.474,1.328-5.259
						c0.314-2.505,0.416-5.055-0.56-7.488c-1.006-2.509-2.63-3.572-4.555-3.215c0,1.477,0.126,2.919-0.034,4.328
						c-0.171,1.504-0.535,2.999-0.952,4.46C531.867,147.957,531.97,151.298,533.763,154.613z M532.744,154.535
						c-2.172-3.789-1.746-7.677-0.805-11.642c0.443-1.868,0.724-3.8,0.823-5.716c0.084-1.607-1.034-2.147-2.43-1.313
						c-0.43,0.257-0.824,0.661-1.095,1.086c-2.958,4.639-2.785,9.484-0.633,14.307C529.325,152.87,530.631,154.208,532.744,154.535z
						 M539.385,137.806c1.132,2.656,1.208,5.431,0.901,8.224c-0.307,2.792-0.545,5.623-2.348,8.005
						C542.519,151.673,542.724,141.367,539.385,137.806z"/>
				</g>
				<g style="opacity:0.7;">
					<g>
						<path style="fill:#8E7C54;" d="M-51.935,727.923c0.025,3.74-1.235,5.787-3.156,6.28c-1.888,0.484-3.919-0.534-5.15-2.804
							c-1.515-2.793-2.243-5.772-1.404-8.948c0.483-1.828,1.593-3.117,3.563-3.304c1.804-0.171,3.239,0.761,3.902,2.316
							C-53.147,723.887-52.435,726.448-51.935,727.923z"/>
						<path style="fill:#8E7C54;" d="M-60.053,689.633c0.279-1.442,0.32-2.397,0.652-3.236c1.035-2.612,4.306-3.008,5.982-0.763
							c0.292,0.391,0.567,0.838,0.693,1.301c0.777,2.849,1.65,5.683,2.213,8.577c0.49,2.517-0.674,4.436-2.568,4.913
							c-2.002,0.505-3.9-0.469-4.745-2.87C-58.782,694.836-59.402,691.998-60.053,689.633z"/>
						<path style="fill:#8E7C54;" d="M-9.918,720.158c0.168,1.662,0.367,3.322,0.496,4.987c0.209,2.706-0.878,4.466-2.956,4.881
							c-2.019,0.403-3.816-0.863-4.563-3.434c-0.97-3.338-1.189-6.738,0.099-10.041c1.109-2.844,4.382-3.57,6.051-1.381
							c0.529,0.693,0.754,1.677,0.926,2.565c0.15,0.776,0.031,1.605,0.031,2.41C-9.861,720.151-9.89,720.154-9.918,720.158z"/>
						<path style="fill:#8E7C54;" d="M-96.258,699.622c0.181-1.4,0.3-3.015,0.621-4.587c0.283-1.387,0.996-2.567,2.534-2.915
							c1.535-0.347,2.624,0.425,3.552,1.522c2.555,3.019,2.765,6.41,1.426,9.957c-0.771,2.042-2.471,3.094-4.293,2.929
							c-1.861-0.169-3.128-1.458-3.543-3.733C-96.138,701.823-96.151,700.824-96.258,699.622z"/>
						<path style="fill:#8E7C54;" d="M-58.304,748.513c0.248-2.168,1.381-3.757,3.143-4.099c1.718-0.333,3.434,0.738,4.03,2.793
							c0.79,2.724,1.475,5.486,2.041,8.266c0.425,2.088-0.608,3.8-2.322,4.32c-1.697,0.515-3.512-0.367-4.23-2.415
							C-56.66,754.468-57.429,751.472-58.304,748.513z"/>
						<path style="fill:#8E7C54;" d="M-35.543,717.404c-0.286,2.141-1.269,3.852-2.718,4.274c-1.53,0.446-3.306-0.266-4.363-2.069
							c-1.822-3.106-2.035-6.55-1.525-10.018c0.238-1.618,1.402-2.628,3.073-2.741c1.695-0.114,2.906,0.837,3.379,2.364
							C-36.864,711.909-36.249,714.671-35.543,717.404z"/>
						<path style="fill:#8E7C54;" d="M-14.391,635.643c-0.889,2.468-1.679,4.978-2.702,7.389c-0.629,1.482-1.93,2.269-3.631,1.968
							c-1.72-0.305-2.574-1.588-2.733-3.133c-0.367-3.566,0.487-6.913,2.566-9.846c0.902-1.273,2.239-1.992,3.901-1.398
							c1.653,0.59,2.135,1.944,2.173,3.54c0.01,0.432-0.047,0.865-0.073,1.298C-14.724,635.521-14.557,635.582-14.391,635.643z"/>
						<path style="fill:#8E7C54;" d="M18.206,685.892c0.341-2.007,0.618-4.029,1.052-6.016c0.207-0.948,0.604-1.897,1.108-2.729
							c0.803-1.324,2.041-2.025,3.622-1.578c1.593,0.451,2.319,1.724,2.198,3.261c-0.211,2.705-0.479,5.424-1.003,8.081
							c-0.565,2.87-2.14,4.147-4.151,3.814C19.111,690.407,18.183,688.752,18.206,685.892z"/>
						<path style="fill:#8E7C54;" d="M-30.058,706.874c0.953-2.454,1.789-4.963,2.903-7.342c0.679-1.451,1.965-2.528,3.755-2.062
							c1.811,0.471,2.545,2.101,2.598,3.694c0.096,2.86-0.399,5.68-2.139,8.107c-1.167,1.628-2.79,2.271-4.314,1.74
							C-28.844,710.456-29.709,709.024-30.058,706.874z"/>
						<path style="fill:#8E7C54;" d="M-8.32,673.81c-1.047,4.009-2.316,7.515-5.329,9.921c-0.788,0.629-2.472,0.573-3.577,0.254
							c-1.373-0.396-1.88-1.78-1.523-3.193c0.881-3.489,2.448-6.656,5.41-8.801c0.833-0.603,2.387-0.699,3.412-0.384
							C-9.19,671.833-8.782,673.129-8.32,673.81z"/>
						<path style="fill:#8E7C54;" d="M1.187,755.228c0.827-4.098,2.14-7.367,5.075-9.579c0.821-0.619,2.502-0.602,3.58-0.246
							c1.317,0.434,1.375,1.886,1.168,3.19c-0.527,3.331-1.705,6.383-4.478,8.437c-0.841,0.623-2.41,0.912-3.352,0.563
							C2.259,757.251,1.713,755.899,1.187,755.228z"/>
						<path style="fill:#8E7C54;" d="M-72.029,724.899c-0.005,2.583-0.932,3.93-2.521,4.341c-1.555,0.402-3.251-0.309-3.833-2.12
							c-0.861-2.68-1.548-5.453-1.924-8.239c-0.287-2.124,0.892-3.476,2.527-3.729c1.583-0.245,2.805,0.582,3.508,2.622
							C-73.39,720.333-72.642,722.938-72.029,724.899z"/>
						<path style="fill:#8E7C54;" d="M-39.632,683.116c0.366-1.648,0.406-3.099,1.033-4.224c0.457-0.819,1.689-1.664,2.572-1.659
							c0.878,0.004,2.348,0.915,2.523,1.669c0.733,3.156,1.221,6.39,1.5,9.622c0.125,1.446-0.976,2.51-2.498,2.801
							c-1.625,0.311-2.945-0.439-3.46-1.856C-38.733,687.352-39.13,685.101-39.632,683.116z"/>
						<path style="fill:#8E7C54;" d="M-7.917,616.845c-0.115,3.206-0.868,4.261-3.561,4.662c-2.118,0.316-3.897-0.86-4.216-3.452
							c-0.287-2.329-0.061-4.766,0.264-7.109c0.194-1.401,1.325-2.407,2.879-2.491c1.618-0.087,2.538,0.965,2.981,2.339
							C-8.929,612.783-8.46,614.826-7.917,616.845z"/>
						<path style="fill:#8E7C54;" d="M-74.125,697.537c0.355-2.135,1.248-3.563,2.723-3.871c1.593-0.333,2.871,0.381,3.636,2.412
							c0.888,2.358,1.649,4.779,2.259,7.223c0.487,1.952-0.428,3.613-1.941,4.119c-1.578,0.528-3.283-0.142-4.059-2.038
							C-72.549,702.837-73.267,700.159-74.125,697.537z"/>
						<path style="fill:#8E7C54;" d="M-79.426,679.263c-0.917,1.15-1.533,2.409-2.541,3.063c-1.295,0.839-2.834,0.44-3.876-0.725
							c-2.077-2.322-3.237-5.12-3.475-8.208c-0.122-1.582,0.613-2.939,2.299-3.393c1.566-0.422,2.85,0.187,3.612,1.572
							C-82.082,673.983-80.871,676.456-79.426,679.263z"/>
						<path style="fill:#8E7C54;" d="M-62.356,661.923c2.287,0.427,3.09,1.081,2.709,3.077c-0.466,2.44-1.071,4.945-2.172,7.144
							c-1.061,2.12-3.35,2.62-5.072,1.753c-1.716-0.864-2.419-2.86-1.488-5.163c0.684-1.693,1.574-3.381,2.728-4.778
							C-64.873,663.014-63.477,662.583-62.356,661.923z"/>
						<path style="fill:#8E7C54;" d="M-14.418,748.594c2.107,0.059,3.354,1.92,2.934,4.055c-0.565,2.872-1.934,5.348-4.381,7.071
							c-1.404,0.989-2.976,1.408-4.446,0.173c-1.473-1.237-1.451-2.928-0.538-4.377c1.302-2.067,2.815-4.019,4.404-5.877
							C-15.904,749.007-14.858,748.808-14.418,748.594z"/>
						<path style="fill:#8E7C54;" d="M-29.091,738.817c-0.308,3.632-1.546,6.083-3.533,8.129c-1.075,1.107-2.487,1.405-3.924,0.679
							c-1.503-0.76-2.138-2.123-1.838-3.713c0.517-2.739,1.823-5.12,3.929-6.974c1.103-0.971,2.569-1.344,3.764-0.465
							C-29.831,737.106-29.405,738.33-29.091,738.817z"/>
						<path style="fill:#8E7C54;" d="M-51.383,669.957c0.646-3.775,1.609-6.74,4.247-8.676c0.811-0.595,2.422-0.716,3.354-0.319
							c0.659,0.28,1.136,1.816,1.085,2.758c-0.096,1.762-0.478,3.553-1.047,5.228c-0.361,1.061-1.179,2.024-1.965,2.869
							c-0.947,1.018-2.335,1.565-3.522,0.756C-50.229,671.893-50.84,670.648-51.383,669.957z"/>
						<path style="fill:#8E7C54;" d="M-55.926,640.394c-0.475,3.201-1.476,5.825-3.263,8.147c-1.043,1.355-2.407,2.009-4.075,1.215
							c-1.681-0.801-2.214-2.434-1.554-3.923c1.087-2.454,2.465-4.822,4.043-6.992c0.585-0.805,2.226-1.485,3.11-1.237
							C-56.886,637.821-56.491,639.41-55.926,640.394z"/>
						<path style="fill:#8E7C54;" d="M29.699,704.917c0.117,1.396,0.386,2.942,0.345,4.48c-0.079,3.003-1.774,4.93-3.905,4.677
							c-2.146-0.255-3.206-2.149-2.772-5.227c0.232-1.651,0.579-3.303,1.057-4.899c0.64-2.138,1.856-3.071,3.354-2.841
							C29.223,701.328,29.704,702.246,29.699,704.917z"/>
						<path style="fill:#8E7C54;" d="M-0.546,728.785c0.239-1.124,0.548-3.21,1.147-5.21c0.574-1.918,2.072-2.773,3.647-2.313
							c1.753,0.512,2.127,1.876,2.004,3.506c-0.139,1.845-0.178,3.702-0.401,5.537c-0.284,2.342-1.713,3.688-3.528,3.512
							C0.478,733.638-0.626,732.084-0.546,728.785z"/>
						<path style="fill:#8E7C54;" d="M-34.439,611.411c0.509-1.417,0.742-2.807,1.454-3.878c1.106-1.662,3.536-1.464,4.195,0.361
							c0.853,2.362,1.358,4.854,1.937,7.308c0.119,0.507,0.094,1.252-0.201,1.612c-0.697,0.85-1.531,2.031-2.431,2.148
							c-0.902,0.117-2.424-0.65-2.841-1.458C-33.291,615.63-33.754,613.496-34.439,611.411z"/>
						<path style="fill:#8E7C54;" d="M-45.342,637.915c0.071-1.68,0.606-2.887,2.126-3.333c1.432-0.421,2.707,0.132,3.314,1.388
							c1.12,2.317,2.11,4.715,2.92,7.156c0.421,1.269-0.236,2.466-1.493,3.071c-1.366,0.658-2.646,0.384-3.73-0.694
							C-43.548,644.168-45.371,639.629-45.342,637.915z"/>
						<path style="fill:#8E7C54;" d="M9.708,682.158c0.005,1.974-1.057,3.448-2.684,3.724c-1.698,0.288-3.413-0.615-3.713-2.574
							c-0.424-2.778-0.419-5.635-0.392-8.457c0.005-0.563,0.857-1.443,1.459-1.586c0.627-0.149,1.817,0.208,2.08,0.705
							c1.371,2.589,2.526,5.294,3.755,7.958C10.045,682.004,9.876,682.081,9.708,682.158z"/>
						<path style="fill:#8E7C54;" d="M-25.356,663.641c-0.189,1.094-0.263,2.352-0.64,3.511c-0.504,1.551-1.645,2.51-3.376,2.305
							c-1.75-0.207-2.81-1.475-2.623-3.058c0.33-2.795,0.96-5.581,1.778-8.275c0.209-0.689,1.623-1.439,2.431-1.385
							c0.644,0.043,1.514,1.183,1.741,1.989C-25.617,660.257-25.577,661.895-25.356,663.641z"/>
						<path style="fill:#8E7C54;" d="M8.537,703.659c0.242-1.215,0.16-2.198,0.61-2.733c0.69-0.82,1.759-1.845,2.646-1.826
							c0.879,0.019,2.221,1.065,2.503,1.938c0.736,2.274,1.107,4.687,1.42,7.071c0.194,1.475-0.514,2.695-2.049,3.126
							c-1.614,0.453-2.927-0.222-3.477-1.707C9.449,707.518,9.012,705.394,8.537,703.659z"/>
						<path style="fill:#8E7C54;" d="M0.746,622.457c0.303-1.509,0.393-3.112,0.994-4.491c0.336-0.772,1.502-1.581,2.328-1.618
							c0.704-0.032,1.87,0.88,2.11,1.612c0.688,2.099,1.214,4.299,1.421,6.495c0.225,2.394-1.033,3.905-2.874,4.081
							c-1.898,0.181-3.308-1.185-3.672-3.629c-0.118-0.793-0.109-1.606-0.158-2.41C0.846,622.483,0.796,622.47,0.746,622.457z"/>
						<path style="fill:#8E7C54;" d="M20.131,623.862c0.156-1.177,0.338-2.833,0.608-4.475c0.2-1.214,0.665-2.293,2.13-2.409
							c1.383-0.109,2.321,0.659,2.641,1.872c0.547,2.069,1.116,4.184,1.221,6.303c0.125,2.503-1.409,4.113-3.33,4.096
							c-1.943-0.018-3.175-1.586-3.269-4.164C20.124,624.839,20.131,624.591,20.131,623.862z"/>
						<path style="fill:#8E7C54;" d="M26.389,649.937c0.128-1.33,0.043-2.446,0.392-3.403c0.255-0.701,0.998-1.5,1.679-1.686
							c0.581-0.158,1.758,0.304,2.023,0.823c1.14,2.237,2.293,4.528,2.952,6.933c0.559,2.04-0.757,3.732-2.538,4.116
							c-1.775,0.383-3.365-0.676-3.92-2.83C26.623,652.523,26.551,651.084,26.389,649.937z"/>
						<path style="fill:#8E7C54;" d="M21.961,728.832c-0.483,1.747-0.755,3.592-1.506,5.215c-0.861,1.861-2.769,2.489-4.336,1.845
							c-1.531-0.629-2.437-2.258-1.814-4.17c0.638-1.958,1.615-3.839,2.681-5.61c0.678-1.126,1.853-1.888,3.334-1.3
							c1.39,0.552,1.309,1.79,1.277,2.982c-0.008,0.309-0.001,0.618-0.001,0.926C21.719,728.758,21.84,728.795,21.961,728.832z"/>
						<path style="fill:#8E7C54;" d="M-2.104,699.134c-0.254,0.92-0.396,1.918-0.802,2.794c-0.602,1.298-1.819,2.145-3.16,1.696
							c-1.023-0.342-2.326-1.299-2.575-2.23c-0.782-2.925,0.004-5.804,1.558-8.331c1.01-1.643,3.252-1.228,3.902,0.718
							C-2.619,695.464-2.46,697.281-2.104,699.134z"/>
						<path style="fill:#8E7C54;" d="M-2.929,638.514c-0.365,1.456-0.558,2.813-1.054,4.049c-0.531,1.323-1.665,1.941-3.147,1.702
							c-1.47-0.237-2.22-1.299-2.169-2.596c0.099-2.516,0.355-5.044,0.819-7.517c0.129-0.689,1.195-1.648,1.861-1.673
							c0.783-0.029,1.986,0.641,2.318,1.336C-3.603,635.279-3.354,636.957-2.929,638.514z"/>
						<path style="fill:#8E7C54;" d="M-81.387,652.241c0.221-0.838,0.46-2.602,1.184-4.137c0.395-0.838,1.587-1.729,2.463-1.774
							c0.698-0.036,1.746,1.037,2.137,1.856c0.926,1.94,1.153,4.035,0.347,6.139c-0.776,2.026-2.062,2.952-3.72,2.631
							C-80.644,656.633-81.482,655.314-81.387,652.241z"/>
						<path style="fill:#8E7C54;" d="M0.737,653.463c-1.09,2.221-1.972,4.378-3.176,6.336c-0.725,1.179-2.119,1.525-3.465,0.853
							c-1.363-0.68-1.909-2.025-1.301-3.282c1.115-2.306,2.49-4.502,3.944-6.616c0.295-0.429,1.755-0.653,2.089-0.341
							C-0.397,651.14,0.021,652.25,0.737,653.463z"/>
						<path style="fill:#8E7C54;" d="M-51.96,612.434c0.791,0.756,1.832,1.379,2.318,2.297c0.863,1.626,1.415,3.422,2.048,5.165
							c0.459,1.264,0.082,2.366-1.013,3.089c-1.167,0.771-2.481,0.678-3.402-0.328c-1.95-2.131-2.876-4.747-2.799-7.627
							C-54.771,613.695-53.589,612.799-51.96,612.434z"/>
						<path style="fill:#8E7C54;" d="M16.041,650.513c-0.428,1.396-0.723,2.855-1.321,4.177c-0.653,1.443-1.962,2.09-3.531,1.641
							c-1.589-0.456-2.388-1.762-2.038-3.284c0.464-2.018,1.13-4.044,2.071-5.882c0.863-1.686,2.949-1.591,3.87,0.087
							C15.603,648.184,15.715,649.336,16.041,650.513z"/>
					</g>
				</g>
			</g>
		</g>
		<g style="opacity:0.3;clip-path:url(#SVGID_00000166644107078385204570000008884199979358103951_);">
			<path style="fill:#8E7C54;" d="M103.638,233.402c1.069,2.255,1.814,4.594,1.67,7.159c-0.154,2.75-2.485,5.002-4.936,4.532
				c-0.819-0.157-1.66-0.64-2.305-1.191c-2.451-2.092-3.792-4.848-4.459-7.963c-0.085-0.397-0.186-0.791-0.296-1.25
				c-2.354,1.054-4.807,1.547-7.305,1.171c-1.301-0.196-2.656-0.708-3.756-1.43c-2.112-1.385-2.516-3.87-1.27-6.158
				c1.006-1.846,2.592-3.039,4.549-3.976c-0.237-0.192-0.393-0.342-0.571-0.458c-3.014-1.951-5.371-4.488-6.953-7.728
				c-0.779-1.595-1.06-3.231,0.055-4.741c1.128-1.528,2.82-1.809,4.598-1.609c2.735,0.308,4.911,1.74,6.862,3.564
				c0.256,0.239,0.337,0.665,0.499,1.005c0.083-0.137,0.167-0.273,0.25-0.41c0.371-1.256,0.596-2.58,1.147-3.752
				c0.757-1.61,1.882-2.994,3.901-3.006c2.111-0.013,3.413,1.262,4.201,3.053c0.584,1.328,0.961,2.746,1.457,4.204
				c0.103-0.092,0.238-0.17,0.316-0.287c5.878-8.836,10.353-18.315,13.129-28.58c0.258-0.954-0.071-1.706-0.54-2.391
				c-1.866-2.725-3.736-5.45-5.717-8.09c-1.55-2.066-3.423-3.899-4.878-6.024c-2.749-4.016-3.123-8.407-1.471-12.979
				c0.556-1.538,1.066-3.093,1.638-4.625c1.228-3.29,0.958-6.49-0.546-9.615c-0.591-1.228-1.195-2.452-1.858-3.641
				c-2.226-3.99-2.604-8.139-1.404-12.542c0.713-2.614,1.116-5.311,1.617-7.771c-2.383-0.225-4.552-0.536-6.728-0.594
				c-1.162-0.031-2.408,0.19-3.489,0.618c-3.019,1.194-5.727,0.842-8.224-1.214c-0.919-0.757-1.896-1.457-2.739-2.292
				c-0.892-0.884-0.698-1.501,0.488-1.938c0.827-0.305,1.654-0.622,2.502-0.86c5.52-1.548,9.844-4.851,13.487-9.156
				c1.842-2.177,3.889-4.13,6.392-5.519c1.632-0.906,3.316-1.746,5.05-2.433c2.73-1.082,5.457-0.816,8.153,0.301
				c0.536,0.222,1.244,0.217,1.828,0.097c1.196-0.244,2.389-0.561,3.534-0.982c6.207-2.281,11.769,1.014,14.479,5.541
				c1.49,2.489,2.136,5.211,2.266,8.084c0.109,2.417,0.225,4.834,0.388,7.247c0.127,1.876,0.792,3.561,1.875,5.113
				c2.361,3.384,4.192,7.033,5.08,11.085c1.159,5.289,0.012,10.072-3.385,14.3c-0.64,0.797-1.318,1.564-1.959,2.361
				c-1.848,2.299-2.71,4.871-2.527,7.873c0.128,2.094,0.024,4.227-0.222,6.314c-0.39,3.311-2.217,5.945-4.35,8.404
				c-1.97,2.272-4.422,3.934-6.863,5.62c-3.649,2.52-6.746,5.628-9.537,9.048c-0.369,0.452-0.631,1.064-0.744,1.641
				c-1.439,7.348-4.428,14.082-8.071,20.562c-0.08,0.142-0.135,0.298-0.272,0.605c2.117-0.387,4.067-0.457,5.515,1.317
				c0.071-0.025,0.172-0.033,0.182-0.067c1.349-4.569,4.056-8.366,6.859-12.112c3.966-5.301,8.434-10.109,13.891-13.908
				c3.435-2.391,7.202-3.93,11.488-3.528c1.542,0.145,3.161,0.398,4.555,1.024c5.376,2.415,10.855,2.41,16.523,1.362
				c2.926-0.541,5.947-0.685,8.931-0.764c3.01-0.08,5.801,0.975,7.901,3.098c3.325,3.36,7.343,5.095,11.881,5.872
				c3.937,0.674,7.37,2.29,10.28,5.086c1.536,1.476,3.469,2.334,5.508,3.026c3.025,1.027,6.03,2.151,8.947,3.451
				c2.537,1.13,4.501,3.058,6.046,5.371c3.451,5.169,6.194,10.66,7.468,16.795c0.414,1.992,0.781,3.995,1.064,6.009
				c0.04,0.283-0.464,0.818-0.823,0.952c-1.94,0.723-3.911,1.362-5.875,2.019c-3.194,1.069-6.366,2.21-9.59,3.176
				c-6.201,1.858-12.344,1.636-18.267-1.063c-2.798-1.275-5.57-1.298-8.477-0.656c-2.326,0.513-4.667,1.013-7.027,1.305
				c-3.861,0.478-7.22-0.978-10.364-3.054c-0.455-0.301-0.938-0.569-1.354-0.917c-2.953-2.47-6.331-2.699-9.946-2.056
				c-1.599,0.285-3.257,0.456-4.874,0.377c-2.652-0.129-4.835-1.509-6.877-3.101c-0.322-0.251-0.648-0.506-0.93-0.801
				c-1.883-1.967-4.177-2.664-6.891-2.738c-3.817-0.103-7.193-1.496-9.698-4.538c-1.017-1.235-2.02-2.494-2.9-3.828
				c-1.345-2.037-3.123-2.896-5.56-2.562c-2.41,0.331-4.739-0.257-7.063-0.827c-1.379-0.339-2.771-0.798-4.317-0.163
				c-0.075,4.304-2.499,7.717-4.646,11.283c2.266,0.651,3.862,2.038,4.504,4.399c0.955,3.515-1.309,6.636-4.953,6.704
				C107.094,233.674,105.402,233.492,103.638,233.402z M166.884,195.325c4.382,2.937,7.552,6.855,10.227,11.157
				c3.955,6.36,7.133,13.07,8.193,20.599c0.089,0.635,0.386,0.943,1.041,0.978c0.917,0.049,1.83,0.163,2.746,0.242
				c4.255,0.364,8.341,1.271,11.954,3.707c0.219,0.148,0.471,0.246,0.733,0.381c0.028-0.156,0.078-0.262,0.057-0.351
				c-0.264-1.154-0.549-2.304-0.808-3.459c-2.231-9.982-7.286-18.397-14.307-25.705c-2.663-2.771-5.704-4.91-9.652-5.495
				c-1.611-0.239-3.178-0.761-4.779-1.085C170.496,195.93,168.687,195.645,166.884,195.325z M147.24,195.337
				c1.042,0.433,1.918,0.708,2.709,1.14c3.879,2.118,7.134,4.986,9.903,8.415c3.688,4.567,6.495,9.631,8.508,15.14
				c0.204,0.559,0.447,0.941,1.132,1.127c1.565,0.426,3.154,0.881,4.601,1.595c1.764,0.87,3.387,2.024,5.08,3.041
				c1.688,1.014,3.46,1.795,5.488,1.98c0-0.208,0.013-0.311-0.003-0.41c-0.032-0.2-0.08-0.397-0.121-0.596
				c-1.682-8.163-5.527-15.302-10.391-21.962c-2.747-3.76-5.929-7.034-10.128-9.18c-0.689-0.352-1.441-0.797-2.171-0.811
				c-3.569-0.07-7.142-0.049-10.712,0.028C149.895,194.87,148.66,195.149,147.24,195.337z M127.692,201.873
				c1.292,0.176,2.386,0.195,3.403,0.484c5.562,1.582,10.584,4.149,14.604,8.41c2.198,2.329,4.312,4.738,6.505,7.072
				c0.397,0.423,0.955,0.826,1.504,0.951c1.788,0.408,3.598,0.747,5.415,0.995c2.89,0.394,5.793,0.694,8.727,1.037
				c-0.022-0.187-0.011-0.295-0.049-0.382c-1.944-4.434-4.148-8.71-7.105-12.586c-2.625-3.44-5.441-6.653-9.162-8.947
				c-3.733-2.301-7.635-3.15-11.976-1.743C135.57,198.458,131.682,199.949,127.692,201.873z M186.044,200.069
				c-0.024,0.051-0.048,0.103-0.073,0.154c0.086,0.101,0.162,0.214,0.26,0.302c4.207,3.822,7.44,8.401,10.25,13.294
				c3.309,5.762,5.005,12.072,6.186,18.553c0.064,0.353,0.376,0.76,0.689,0.955c3.096,1.925,6.526,1.886,9.984,1.607
				c0.725-0.059,1.445-0.179,2.183-0.272c-0.146-0.559-0.279-0.981-0.367-1.411c-1.63-8.034-4.995-15.278-9.961-21.78
				c-1.97-2.579-4.086-5.033-7.122-6.434c-1.947-0.899-3.907-1.772-5.89-2.589C190.155,201.611,188.092,200.858,186.044,200.069z
				 M130.609,211.785c1.108,1.339,2.223,2.619,3.262,3.957c2.741,3.529,6.346,5.512,10.756,6.007c2.333,0.262,4.41,1.09,6.309,2.432
				c0.807,0.57,1.61,1.148,2.437,1.688c2.013,1.313,4.178,2.175,6.632,1.971c1.254-0.104,2.499-0.321,3.745-0.503
				c3.372-0.493,6.581-0.275,9.439,1.893c1.109,0.841,2.336,1.531,3.528,2.257c2.856,1.739,5.921,2.577,9.278,2.04
				c4.299-0.687,8.543-1.956,12.995-1.203c-0.16-0.17-0.329-0.264-0.501-0.356c-3.781-2.014-7.951-2.275-12.085-2.585
				c-3.334-0.25-6.404-1.076-9.196-2.992c-1.818-1.248-3.717-2.424-5.703-3.372c-2.98-1.423-6.283-1.347-9.493-1.626
				c-2.305-0.2-4.624-0.27-6.922-0.529c-3.851-0.434-7.021-2.35-9.776-4.938C141.107,211.976,136.067,211.182,130.609,211.785z
				 M121.479,135.804c0.087-0.002,0.174-0.005,0.261-0.007c0-1.421,0.037-2.844-0.007-4.264c-0.118-3.752,0.036-7.472-1.657-11.078
				c-2.81-5.984-6.468-11.123-12.358-14.374c-1.759-0.971-3.644-1.716-5.471-2.564c-0.13,0.078-0.261,0.156-0.391,0.234
				c-0.049,1.821-0.239,3.652-0.111,5.46c0.174,2.474,0.58,4.932,0.919,7.393c0.033,0.238,0.253,0.526,0.467,0.65
				c1.645,0.955,3.342,1.823,4.964,2.816c4.265,2.61,8.065,5.715,10.475,10.231C119.546,132.131,120.509,133.97,121.479,135.804z
				 M118.451,165.897c0.127-0.273,0.231-0.412,0.257-0.564c0.353-2.08,0.769-4.152,1.018-6.245c0.208-1.746,0.551-3.575,0.253-5.264
				c-0.966-5.472-3.755-10.182-6.854-14.681c-2.312-3.357-5.622-5.709-8.826-8.137c-1.145-0.868-2.337-1.675-3.574-2.557
				c-0.594,3.06-0.109,5.799,1.52,8.745c1.369,2.476,2.689,4.962,3.369,7.745c0.157,0.645,0.564,1.293,1.019,1.79
				c1.951,2.131,4.189,4.038,5.901,6.34C115.353,156.857,117.277,161.15,118.451,165.897z M135.997,103.637
				c-0.943,0.766-1.611,1.286-2.255,1.834c-3.578,3.041-6.933,6.291-8.878,10.667c-1.096,2.465-2.308,4.912-2.186,7.761
				c0.144,3.363,0.154,6.732,0.226,10.098c0.004,0.176,0.042,0.351,0.107,0.858c3.238-7.308,9.711-10.581,15.659-14.226
				c-0.385-1.317-0.898-2.53-1.077-3.79c-0.376-2.658-0.554-5.344-0.859-8.013C136.545,107.182,136.271,105.547,135.997,103.637z
				 M143.808,132.961c-0.183,0.012-0.292-0.009-0.373,0.029c-8.546,3.998-15.813,9.472-20.505,17.88
				c-0.352,0.63-0.546,1.386-0.654,2.107c-0.242,1.615-0.381,3.246-0.565,4.87c-0.147,1.307-0.297,2.613-0.446,3.92
				c0.455-0.345,0.71-0.752,1.028-1.101c1.899-2.084,3.708-4.265,5.748-6.201c2.296-2.179,5.321-3.212,8.107-4.607
				c0.338-0.169,0.675-0.437,0.886-0.745c1.055-1.542,2.006-3.16,3.111-4.664c1.471-2.002,2.65-4.132,3.23-6.552
				C143.762,136.29,144.075,134.658,143.808,132.961z M139.305,121.479c-4.238,2.258-9.758,6.047-12.763,10.46
				c-1.53,2.247-3.285,4.493-3.559,7.261c-0.282,2.85-0.063,5.75-0.063,8.549c4.821-7.849,12.69-11.997,20.731-16.018
				C142.766,128.111,141.104,124.804,139.305,121.479z M101.037,127.599c-0.044-0.036,0.055,0.051,0.161,0.129
				c3.186,2.325,6.44,4.562,9.528,7.01c1.477,1.171,2.899,2.577,3.886,4.163c2.025,3.255,3.741,6.702,5.578,10.073
				c0.166,0.305,0.287,0.635,0.429,0.954c0.373-2.225,0.606-4.392,0.736-6.565c0.081-1.348,0.379-2.843-0.064-4.032
				c-1.644-4.412-3.707-8.665-6.722-12.322c-3.169-3.843-7.456-6.309-11.645-8.861c-0.04-0.024-0.122,0.02,0.026-0.009
				C102.31,121.307,101.685,124.394,101.037,127.599z M122.314,118.271c2.308-6.957,7.278-11.616,13.287-15.317
				c-0.866-2.387-2.05-4.371-3.912-5.841c-2.849-2.251-5.991-3.292-9.634-2.088c-1.376,0.455-2.812,0.728-4.337,1.113
				C120.641,103.152,121.138,110.74,122.314,118.271z M121.197,119.557c-0.147-1.611-0.239-2.985-0.404-4.349
				c-0.358-2.964-0.59-5.957-1.178-8.877c-0.674-3.351-1.672-6.637-2.553-9.944c-0.057-0.213-0.283-0.445-0.49-0.543
				c-3.68-1.74-8.756-0.751-11.456,2.29c-1.234,1.39-2.372,2.876-2.785,4.819C111.352,105.323,117.117,111.316,121.197,119.557z
				 M180.484,184.638c-4.599,3.969-9.672,6.793-15.22,8.358c4.716,1.01,9.481,1.979,14.217,3.075
				c1.632,0.378,3.201,0.664,4.909,0.566c2.923-0.168,5.845-0.254,8.672-1.083c2.298-0.674,4.566-1.447,6.848-2.177
				c-0.007-0.161-0.014-0.322-0.021-0.482c-2.359-0.47-4.706-1.012-7.079-1.394c-3.914-0.63-7.382-2.088-10.177-4.985
				C181.999,185.86,181.257,185.308,180.484,184.638z M147.301,193.663c4.439-0.851,8.93-0.866,13.425-0.796
				c0.269,0.004,0.542-0.04,0.809-0.088c3.632-0.654,7.112-1.804,10.443-3.372c2.8-1.318,5.344-3.049,7.831-5.159
				c-0.672-0.311-1.202-0.603-1.763-0.809c-2.775-1.022-5.612-0.883-8.469-0.44c-3.495,0.542-6.996,1.042-10.49,1.593
				c-0.329,0.052-0.665,0.293-0.921,0.53c-1.024,0.949-1.934,2.038-3.038,2.878C152.592,189.931,149.966,191.746,147.301,193.663z
				 M115.121,207.35c0.108,0.09,0.216,0.181,0.324,0.272c0.648-0.494,1.262-1.041,1.949-1.471c2.364-1.478,4.8-2.845,7.125-4.38
				c6.098-4.026,11.557-8.766,15.901-14.693c1.253-1.71,2.415-3.487,3.619-5.234c-0.709-0.173-1.245-0.157-1.765-0.057
				c-3.453,0.664-6.481,2.208-9.229,4.387c-4.769,3.782-8.673,8.383-12.387,13.14C118.661,201.874,116.958,204.664,115.121,207.35z
				 M224.167,232.742c-0.036-0.336-0.022-0.478-0.068-0.596c-1.301-3.345-2.417-6.779-3.959-10.009
				c-2.142-4.488-5.105-8.343-9.778-10.574c-1.194-0.57-2.289-1.344-3.439-2.007c-0.666-0.384-1.352-0.733-1.817-0.984
				c2.302,4.009,4.776,8.094,7.026,12.299c2.273,4.249,2.98,9.03,4.109,13.782C218.952,233.999,221.522,233.38,224.167,232.742z
				 M116.269,177.478c0.578-2.784,1.104-5.278,1.605-7.777c0.051-0.252-0.034-0.538-0.082-0.804
				c-0.91-5.008-2.807-9.643-5.304-14.054c-1.647-2.909-4.099-5.114-6.575-7.73c0.238,3.353-0.827,6.153-1.846,8.955
				c-0.27,0.742-0.178,1.208,0.395,1.777c3.611,3.583,6.451,7.711,8.539,12.352C114.046,172.52,115.087,174.845,116.269,177.478z
				 M118.858,174.051c2.148-2.736,4.775-4.885,7.71-6.656c2.734-1.649,5.53-3.194,8.28-4.818c0.341-0.201,0.715-0.562,0.809-0.918
				c0.188-0.716,0.228-1.477,0.269-2.223c0.159-2.94-0.464-5.913,0.575-9.122c-1.741,0.978-3.215,1.772-4.657,2.622
				c-4.417,2.606-7.442,6.526-10.03,10.821c-0.692,1.15-1.311,2.405-1.649,3.694C119.597,169.616,119.28,171.848,118.858,174.051z
				 M157.757,184.604c-3.381-0.15-6.132-1.36-8.969-2.266c-1.028-0.328-2.117-0.486-3.189-0.643
				c-0.246-0.036-0.666,0.18-0.792,0.401c-3.092,5.451-7.282,9.993-11.803,14.255c-1.126,1.061-2.358,2.011-3.541,3.012
				c1.673-0.568,3.259-1.327,4.903-1.927c2.778-1.012,5.738-1.632,8.357-2.944c3.907-1.957,7.625-4.307,11.337-6.629
				C155.35,187.057,156.382,185.838,157.757,184.604z M114.744,209.824c1.868-0.448,3.676-0.115,5.48,0.268
				c0.566,0.12,1.125,0.274,1.689,0.404c3.906,0.899,7.809,0.213,11.694-0.124c4.505-0.391,8.607,0.307,12.11,3.407
				c1.273,1.127,2.675,2.11,4.026,3.147c0.183,0.141,0.417,0.216,0.628,0.321c-1.044-1.323-2.181-2.498-3.301-3.689
				c-4.484-4.77-9.718-8.287-16.171-9.833c-2.332-0.559-4.761-0.858-6.965-0.085C120.408,204.876,117.488,207.232,114.744,209.824z
				 M202.547,204.835c0.247,0.163,0.346,0.237,0.453,0.298c3.313,1.886,6.77,3.562,9.892,5.723c2.394,1.657,4.835,2.199,7.572,1.875
				c2.134-0.252,4.25-0.656,6.35-0.989c-0.025-0.339-0.01-0.415-0.038-0.468c-2.741-5.03-6.999-8.152-12.398-9.82
				c-0.249-0.077-0.607-0.012-0.845,0.116C210.149,203.386,206.533,204.426,202.547,204.835z M101.618,100.287
				c-3.012,2.627-6.09,5.455-9.322,8.092c-3.278,2.674-7.326,3.784-11.528,4.985c1.338,0.755,2.492,1.285,3.512,2.006
				c2.123,1.501,4.311,1.604,6.79,0.979c1.596-0.403,3.355-0.271,5.034-0.201c1.313,0.055,2.61,0.423,3.923,0.579
				c0.758,0.09,1.22-0.23,1.115-1.121c-0.135-1.146-0.12-2.316-0.32-3.449c-0.45-2.557-0.88-5.109-0.291-7.693
				C100.865,102.99,101.29,101.535,101.618,100.287z M185.865,197.915c0.269,0.114,0.414,0.179,0.562,0.238
				c4.227,1.699,8.446,3.418,12.689,5.078c0.741,0.29,1.597,0.521,2.369,0.449c2.391-0.222,4.79-0.492,7.143-0.963
				c1.536-0.308,2.995-0.997,4.489-1.516c-0.405-0.397-0.714-0.553-1.04-0.633c-3.582-0.871-6.563-2.736-9.099-5.384
				c-0.511-0.533-1.154-0.959-1.791-1.343c-0.26-0.156-0.725-0.199-0.996-0.074C195.668,195.847,190.919,197.128,185.865,197.915z
				 M96.209,225.81c-1.135-0.34-2.469-0.979-3.85-1.105c-3.045-0.278-5.766,0.821-8.177,2.627c-1.19,0.892-2.058,2.121-1.754,3.684
				c0.291,1.496,1.555,2.153,2.904,2.588c4.072,1.314,9.46-0.541,12.019-4.042C96.973,228.32,96.621,227.165,96.209,225.81z
				 M92.02,222.897c-0.455-1.614-1.282-3.381-1.37-5.184c-0.087-1.788-0.986-2.7-2.212-3.583c-0.689-0.497-1.357-1.061-2.118-1.411
				c-1.132-0.52-2.308-1.04-3.52-1.269c-2.738-0.517-4.356,1.442-3.411,4.056c0.308,0.851,0.732,1.7,1.276,2.42
				c1.727,2.285,3.884,4.087,6.463,5.357c0.221,0.109,0.511,0.146,0.759,0.118C89.325,223.242,90.76,223.054,92.02,222.897z
				 M108.129,231.943c2.965,0.048,4.554-1.601,4.069-4.222c-0.452-2.444-3.096-3.923-5.696-4.037
				c-1.266-0.056-2.68-0.062-3.74-0.628c-1.171-0.625-2.043-0.421-3.02,0.062c-1.863,0.921-2.442,2.752-1.37,4.538
				c0.39,0.651,0.958,1.268,1.586,1.69C102.419,230.997,105.167,231.828,108.129,231.943z M106.366,222.6
				c0.708-0.394,1.676-0.679,2.279-1.312c2.452-2.576,3.957-5.66,4.347-9.219c0.199-1.819-0.986-3.016-2.82-2.942
				c-1.446,0.058-2.791,0.539-3.765,1.601c-2.051,2.235-3.602,4.788-4.191,7.812c-0.341,1.75,0.127,2.602,1.751,3.339
				C104.633,222.182,105.378,222.31,106.366,222.6z M100.717,221.881c-0.171-1.007-0.426-1.828-0.428-2.649
				c-0.007-2.781-0.728-5.389-1.868-7.879c-0.339-0.74-0.936-1.439-1.58-1.946c-1.038-0.817-1.995-0.725-2.754,0.348
				c-0.649,0.916-1.245,2-1.436,3.085c-0.574,3.27,0.002,6.443,1.376,9.455c0.513,1.125,1.2,2.14,2.545,2.558
				C97.423,223.053,98.842,222.024,100.717,221.881z M103.465,157.77c-0.151,1.48-0.355,2.753-0.399,4.032
				c-0.124,3.592,1.706,6.358,3.903,8.957c1.078,1.274,2.179,2.534,3.177,3.87c1.764,2.361,3.458,4.774,5.151,7.123
				C116.493,178.76,108.416,162.105,103.465,157.77z M217.951,214.108c5.634,3.922,10.294,9.091,15.474,14.056
				c-1.012-5.883-2.946-11.128-5.914-15.774C224.255,212.975,221.131,213.536,217.951,214.108z M117.019,182.826
				c0.181-0.154,0.341-0.262,0.466-0.402c3.126-3.485,6.532-6.663,10.279-9.477c2.523-1.895,4.824-4.02,6.386-6.811
				c0.514-0.919,0.866-1.93,1.292-2.898c-4.1,1.965-7.905,4.201-11.156,7.154C120.626,173.716,117.533,177.514,117.019,182.826z
				 M98.409,230.553c-1.307,1.157-2.605,2.28-3.861,3.448c-0.183,0.17-0.307,0.625-0.211,0.837c0.862,1.913,1.663,3.869,2.727,5.668
				c0.563,0.952,1.543,1.709,2.46,2.386c0.936,0.691,2.02,0.625,2.69-0.184c0.604-0.729,1.174-1.629,1.359-2.535
				c0.519-2.542-0.518-4.874-1.326-7.213c-0.058-0.169-0.243-0.324-0.408-0.42C100.644,231.834,99.44,231.147,98.409,230.553z
				 M219.186,217.086c-0.1,0.103-0.199,0.207-0.299,0.31c2.938,4.618,4.913,9.621,5.835,15.01c3.125-0.875,6.08-1.702,9.297-2.602
				C228.979,225.483,224.083,221.285,219.186,217.086z"/>
			<path style="fill:#8E7C54;" d="M82.711,213.365c-0.527,0.605-0.99,1.2-1.533,1.708c-0.116,0.109-0.526-0.097-0.8-0.158
				c0.063-0.239,0.07-0.517,0.201-0.709c0.303-0.444,0.653-0.859,1.012-1.26c0.141-0.158,0.434-0.389,0.523-0.34
				C82.312,212.715,82.425,212.978,82.711,213.365z"/>
			<path style="fill:#8E7C54;" d="M109.126,230.674c-0.305-0.463-0.612-0.815-0.564-0.873c0.387-0.465,0.825-0.895,1.297-1.274
				c0.051-0.041,0.413,0.304,0.631,0.47C110.087,229.492,109.684,229.988,109.126,230.674z"/>
			<path style="fill:#8E7C54;" d="M108.007,211.501c1.088-0.108,2.178-0.215,3.297-0.326c0.144,0.628-0.426,1.221-1.56,1.382
				C108.622,212.716,108.078,212.354,108.007,211.501z"/>
			<path style="fill:#8E7C54;" d="M95.05,212.236c0.789-0.123,1.46-0.227,2.131-0.332c0.064,0.105,0.128,0.211,0.191,0.316
				c-0.31,0.242-0.589,0.605-0.939,0.697C95.956,213.042,95.334,213.186,95.05,212.236z"/>
			<path style="fill:#8E7C54;" d="M102.621,239.515c-0.852,0.565-1.598,1.076-2.366,1.554c-0.149,0.093-0.434,0.135-0.559,0.052
				c-0.118-0.078-0.182-0.368-0.142-0.534C99.755,239.754,101.744,238.988,102.621,239.515z"/>
		</g>
		<g style="opacity:0.3;clip-path:url(#SVGID_00000166644107078385204570000008884199979358103951_);">
			<path style="fill:#8E7C54;" d="M503.871,848.928c1.669-0.821,3.117-1.772,4.707-2.266c3.179-0.987,5.616,0.441,6.7,3.576
				c2.623,7.586-2.523,15.705-8.547,18.016c-0.85,0.326-1.774,0.46-2.691,0.689c1.806,5.037,0.767,9.801-1.773,14.311
				c-1.546,2.747-3.68,3.708-6.333,3.22c-2.438-0.449-4.262-2.479-4.722-5.377c-0.212-1.332-0.278-2.688-0.419-4.117
				c-4.291,0.473-6.844-2.258-9-5.292c-2.194-3.088-3.889-6.523-4.092-10.408c-0.083-1.583,0.188-3.249,0.634-4.779
				c0.649-2.228,2.128-3.814,4.633-4.341c-0.236-1.199-0.563-2.372-0.684-3.565c-0.37-3.654-0.208-7.299,0.865-10.82
				c0.396-1.298,1.117-2.602,2.012-3.619c1.71-1.943,4.337-2.087,6.445-0.564c2.118,1.531,3.134,3.724,3.577,6.228
				c0.15,0.85,0.262,1.706,0.614,2.578c0.206-1.485,0.461-2.965,0.608-4.455c0.921-9.342,1.818-18.687,2.723-28.03
				c0.017-0.175-0.005-0.36,0.045-0.524c0.971-3.155-0.458-5.36-2.805-7.24c-1.884-1.51-3.712-3.089-5.589-4.609
				c-3.877-3.139-5.041-7.398-4.401-12.045c0.547-3.971-0.065-7.365-2.397-10.671c-2.813-3.989-3.682-8.518-2.359-13.301
				c1.411-5.103,1.072-10.039-0.896-14.949c-2.406-6.005-2.003-12.032-0.256-18.185c1.373-4.835,2.362-9.804,3.151-14.772
				c0.461-2.906,0.195-5.928,0.253-8.898c0.009-0.453,0.001-0.906,0.001-1.542c1.676,0.745,3.123,1.31,4.501,2.014
				c5.248,2.681,10.421,5.468,14.268,10.14c3.05,3.704,5.152,7.794,4.932,12.708c-0.177,3.946,1.135,7.318,3.391,10.419
				c2.48,3.408,3.792,7.276,3.941,11.419c0.185,5.119-0.071,10.252,0.026,15.376c0.055,2.924,0.17,5.893,0.717,8.755
				c1.54,8.065-0.393,15.118-5.612,21.358c-2.254,2.694-4.549,5.355-6.732,8.106c-0.648,0.817-1.328,1.864-1.397,2.847
				c-0.866,12.477-1.644,24.958-3.922,37.037c1.488,0.769,2.898,1.498,4.246,2.195c1.254-3.388,2.366-7.061,3.965-10.508
				c1.305-2.813,1.429-5.622,1.293-8.578c-0.215-4.691-0.379-9.384-0.491-14.079c-0.165-6.923,2.995-12.017,8.777-15.61
				c0.969-0.602,1.962-1.167,2.96-1.719c2.982-1.65,4.992-4.094,6.063-7.325c0.759-2.29,1.452-4.606,2.317-6.856
				c1.956-5.088,5.343-8.813,10.567-10.699c1.114-0.402,2.196-0.929,3.34-1.211c5.393-1.329,9.545-4.475,13.044-8.658
				c2.394-2.862,4.763-5.758,7.337-8.454c1.838-1.925,3.956-3.594,6.024-5.285c2.305-1.885,5.067-2.787,7.981-2.565
				c6.116,0.466,11.446-1.391,16.521-4.648c6.189-3.972,13.1-5.512,20.424-5.579c3.48-0.032,6.905-0.055,10.308,0.87
				c2.068,0.562,2.119,0.414,1.126,2.489c-0.283,0.591-0.581,1.193-0.976,1.711c-4.375,5.741-6.9,12.362-9.292,19.079
				c-1.823,5.12-3.948,10.132-5.899,15.208c-2.155,5.608-6.342,9.147-11.65,11.555c-2.637,1.197-5.283,2.378-7.951,3.503
				c-1.571,0.662-2.489,1.775-3.076,3.368c-1.119,3.037-2.181,6.124-3.64,9.001c-3.839,7.571-10.03,11.964-18.485,13.224
				c-2.234,0.333-4.41,1.108-6.585,1.773c-2.429,0.743-3.915,2.497-4.991,4.744c-1.425,2.977-2.947,5.955-5.804,7.848
				c-3.876,2.567-8.173,4.127-12.824,4.322c-5.478,0.229-10.97,0.132-16.452,0.311c-1.554,0.051-3.117,0.482-4.634,0.896
				c-1.572,0.429-2.717,1.324-3.363,3.001c-1.37,3.559-2.991,7.021-4.422,10.557C503.545,847.738,503.825,848.434,503.871,848.928z
				 M529.589,803.342c2.374-0.617,4.533-1.377,6.757-1.718c6.436-0.987,12.913-1.145,19.408-0.574
				c6.416,0.564,12.793,1.335,18.87,3.613c1.032,0.387,1.528,0.141,2.182-0.625c2.655-3.112,3.989-6.87,5.371-10.613
				c0.294-0.797,0.557-1.606,0.957-2.764c-4.94-0.778-9.621-1.637-14.336-2.229c-7.345-0.923-14.688-0.864-21.993,0.533
				c-4.309,0.824-8.298,2.103-10.782,6.173c-0.814,1.334-2.013,2.428-2.99,3.668C531.881,800.266,530.779,801.768,529.589,803.342z
				 M603.061,776.824c-6.186-1.849-12.096-2.825-18.086-3.052c-7.195-0.272-14.385,0.143-21.508,1.249
				c-3.707,0.576-7.363,1.681-10.377,3.887c-3.493,2.557-6.608,5.632-9.88,8.49c-0.293,0.256-0.529,0.577-0.967,1.062
				c6.94-2.131,13.751-2.273,20.606-1.874c6.868,0.4,13.68,1.182,20.277,3.179c1.825-3.038,1.837-3.013,5.293-4.663
				c3.6-1.719,7.215-3.414,10.738-5.279C600.504,779.111,601.616,777.954,603.061,776.824z M574.831,805.948
				c-5.119-2.023-10.4-2.746-15.715-3.226c-5.726-0.516-11.459-0.68-17.197-0.026c-3.885,0.443-7.738,0.981-11.438,2.322
				c-1.983,0.719-3.607,1.785-4.855,3.591c-2.218,3.209-4.646,6.275-6.984,9.402c-0.331,0.442-0.649,0.893-0.978,1.347
				c0.129,0.076,0.177,0.127,0.202,0.117c0.612-0.233,1.22-0.475,1.83-0.711c4.275-1.66,8.74-2.43,13.273-2.989
				c5.059-0.624,10.116-1.099,15.194-0.447c2.035,0.261,3.961,0.503,5.589-1.092c0.089-0.087,0.227-0.14,0.352-0.174
				c2.99-0.816,5.943-1.851,8.983-2.388C567.54,810.888,571.469,809.232,574.831,805.948z M558.886,774.367
				c0.356,0.045,0.488,0.101,0.596,0.07c7.17-2.022,14.564-2.098,21.908-2.266c7.255-0.167,14.432,0.734,21.311,3.271
				c0.682,0.252,1.163,0.169,1.52-0.499c0.765-1.429,1.628-2.812,2.307-4.28c1.202-2.601,2.297-5.251,3.492-8.01
				c-1.203-0.281-2.167-0.522-3.139-0.732c-6.236-1.345-12.511-2.33-18.902-1.387c-2.977,0.439-5.983,0.895-8.865,1.726
				c-5.6,1.615-10.691,4.267-15.099,8.17C562.451,771.816,560.698,772.987,558.886,774.367z M550.76,816.586
				c-3.407-0.141-6.557-0.403-9.702-0.361c-2.532,0.034-5.058,0.442-7.587,0.671c-6.097,0.552-11.862,2.207-17.218,5.201
				c-0.357,0.2-0.674,0.554-0.891,0.908c-1.009,1.647-2.001,3.306-2.95,4.988c-0.629,1.116-1.175,2.279-1.793,3.49
				c1.762-0.342,3.294-0.861,4.837-0.897c4.737-0.111,9.479-0.046,14.218-0.031c3.922,0.012,7.662-0.796,11.245-2.386
				c2.714-1.204,5.043-2.855,6.522-5.507C548.505,820.753,549.538,818.825,550.76,816.586z M614.405,750.404
				c-1-0.161-1.883-0.42-2.768-0.426c-4.642-0.032-9.287-0.082-13.925,0.052c-1.846,0.054-3.971,0.075-5.466,0.959
				c-5.206,3.079-10.193,6.529-15.259,9.843c-0.254,0.166-0.474,0.384-0.947,0.771c11.639-3.744,22.963-3.963,34.395,0.058
				C611.751,757.93,613.042,754.268,614.405,750.404z M574.336,747.746c-0.125-0.133-0.251-0.266-0.376-0.398
				c-1.493,0.451-3.055,0.748-4.465,1.383c-4.296,1.936-7.241,5.472-10.171,8.981c-0.293,0.35-0.272,0.983-0.347,1.492
				c-0.433,2.935-0.709,5.902-1.323,8.798c-0.437,2.06-1.323,4.025-2.059,6.177c4.43-3.307,8.756-6.522,13.055-9.771
				c0.399-0.302,0.679-0.798,0.933-1.25c1.928-3.43,3.026-7.161,3.891-10.968C573.807,750.72,574.051,749.228,574.336,747.746z
				 M500.33,715.152c-0.997,1.737-2.075,3.191-2.717,4.816c-1.886,4.773-2.101,9.715-1.024,14.721
				c0.691,3.211,1.382,6.423,2.114,9.828c0.649-1.359,1.154-2.522,1.752-3.635c0.6-1.119,1.258-2.21,1.952-3.273
				c0.993-1.521,2.468-2.882,2.95-4.54c0.504-1.733,0.059-3.736,0.056-5.622C505.404,722.78,503.425,718.937,500.33,715.152z
				 M502.526,851.851c0-0.307,0.007-0.615-0.001-0.922c-0.055-2.156-1.563-4.346-3.487-4.997c-2.139-0.723-3.358,0.686-4.568,2.052
				c-1.654,1.867-2.602,4.109-2.91,6.526c-0.353,2.763-0.774,5.602-0.493,8.339c0.338,3.298,3.66,4.513,6.328,2.518
				c1.088-0.814,2.049-1.944,2.734-3.125C501.979,859.052,502.3,855.45,502.526,851.851z M497.039,746.898
				c-0.653-3.247-1.284-6.13-1.805-9.033c-0.92-5.13-3.38-9.368-7.356-12.686c-1.197-0.999-2.66-1.68-4.18-2.617
				c-0.923,4.31-1.762,8.251-2.612,12.19c-0.268,1.24-0.001,1.946,1.412,2.354c5.569,1.605,10.359,4.463,13.879,9.199
				C496.473,746.432,496.618,746.523,497.039,746.898z M539.645,787.41c0.44-0.379,0.693-0.598,0.946-0.816
				c3.42-2.946,6.776-5.973,10.291-8.801c1.563-1.257,2.736-2.671,3.453-4.504c0.62-1.585,1.373-3.136,1.806-4.771
				c0.759-2.866,1.317-5.784,2.026-8.981c-0.499,0.261-0.591,0.283-0.643,0.341c-0.177,0.194-0.348,0.395-0.506,0.605
				c-3.711,4.945-8.118,8.952-14.233,10.723c-0.314,0.091-0.612,0.74-0.662,1.16c-0.31,2.645-0.429,5.318-0.845,7.944
				C540.912,782.619,540.24,784.88,539.645,787.41z M499.622,792.502c0-3.527,0.009-6.681-0.011-9.835
				c-0.002-0.384-0.117-0.781-0.245-1.15c-1.913-5.496-5.168-9.929-10.362-12.729c-1.5-0.808-3.153-1.333-4.956-2.078
				c0.111,0.709,0.11,1.113,0.241,1.469c0.723,1.967,1.37,3.972,2.247,5.869c1.209,2.613,2.303,5.206,1.955,8.187
				c-0.032,0.277,0.354,0.723,0.657,0.897c1.399,0.805,2.911,1.433,4.246,2.328C495.966,787.185,497.973,789.478,499.622,792.502z
				 M481.328,737.85c-0.152,0.076-0.304,0.152-0.456,0.228c0.594,2.087,1.117,4.197,1.801,6.253c0.732,2.199,1.596,4.356,2.454,6.51
				c0.14,0.351,0.495,0.748,0.838,0.865c5,1.696,8.44,5.355,11.72,9.225c0.295,0.348,0.59,0.696,0.886,1.044
				c-0.103-2.899-0.317-5.691-0.775-8.442c-0.237-1.426-0.639-2.958-1.426-4.136C492.672,743.866,487.454,740.238,481.328,737.85z
				 M499.352,776.7c0-1.927-0.046-3.856,0.012-5.781c0.075-2.51-0.723-4.72-2.028-6.822c-1.988-3.199-4.452-5.997-7.268-8.455
				c-1.307-1.141-2.92-1.931-4.191-2.75c-0.454,3.047-0.87,5.894-1.305,8.737c-0.139,0.909-0.295,1.818-0.509,2.712
				c-0.213,0.888,0.161,1.156,0.977,1.447c2.006,0.715,4.04,1.444,5.896,2.47C494.525,770.242,497.415,773.007,499.352,776.7z
				 M516.196,816.179c0.328-0.27,0.445-0.333,0.518-0.43c3.2-4.295,6.399-8.591,9.588-12.894c0.206-0.278,0.368-0.603,0.483-0.93
				c2.18-6.205,3.426-12.578,3.424-19.172c0-0.36-0.09-0.719-0.139-1.079c-1.101,2.237-1.896,4.501-2.693,6.765
				c-1.373,3.898-3.852,6.9-7.519,8.784c-1.357,0.698-1.675,1.605-1.745,2.994c-0.16,3.188-0.426,6.376-0.788,9.548
				C517.089,811.834,516.61,813.877,516.196,816.179z M529.484,798.605c1.876-2.151,3.449-4.29,5.362-6.063
				c2.489-2.307,3.589-5.203,4.357-8.337c0.322-1.314,0.722-2.616,0.941-3.948c0.456-2.775,0.814-5.566,1.24-8.543
				c-3.718,1.29-6.883,2.852-9.193,5.83c-0.822,1.06-1.197,2.101-1.186,3.469c0.028,3.531-0.005,7.074-0.27,10.593
				C530.562,793.891,529.94,796.142,529.484,798.605z M572.254,761.738c-0.055,0.033,0.121-0.065,0.29-0.176
				c5.568-3.667,11.139-7.328,16.695-11.013c0.463-0.307,0.923-0.705,1.213-1.169c1.463-2.337,2.879-4.705,4.286-7.076
				c0.272-0.458,0.434-0.983,0.646-1.477c-2.418,1.205-4.615,2.555-6.786,3.946c-2.46,1.576-5.144,2.453-8.05,2.586
				c-1.698,0.078-3.403,0.014-4.784,0.014C574.53,752.43,573.376,757.15,572.254,761.738z M505.534,734.612
				c-1.28,2.428-2.624,4.814-3.813,7.275c-1.672,3.46-2.541,7.057-1.756,10.959c0.477,2.371,0.686,4.796,1.039,7.373
				c2.746-5.105,6.065-9.467,10.259-13.154c0.235-0.206,0.343-0.815,0.223-1.124c-0.648-1.666-1.277-3.355-2.12-4.925
				C508.236,738.909,506.917,736.903,505.534,734.612z M514.092,854.348c-0.323-1.349-0.524-2.744-0.999-4.037
				c-0.565-1.536-1.824-2.261-3.355-1.775c-1.424,0.452-2.721,1.314-4.055,2.031c-1.145,0.616-1.429,1.585-1.545,2.895
				c-0.319,3.614-0.851,7.215-2.769,10.43c-0.845,1.417-0.671,2.026,0.857,2.654c0.611,0.251,1.378,0.36,2.024,0.248
				C509.193,865.945,513.869,859.874,514.092,854.348z M493.035,868.645c-2.57-0.823-4.113-2.696-4.761-5.273
				c-0.283-1.126-0.198-2.342-0.31-3.515c-0.044-0.465-0.029-1.03-0.283-1.365c-0.923-1.215-1.867-2.437-2.96-3.494
				c-1.019-0.985-1.998-0.845-2.988,0.19c-1.439,1.503-1.942,3.429-1.679,5.358c0.743,5.443,2.98,10.157,7.531,13.49
				c0.775,0.568,1.818,0.805,2.773,1.065c0.228,0.062,0.777-0.336,0.874-0.625C491.869,872.577,492.425,870.65,493.035,868.645z
				 M502.282,776.031c-0.067,0.059,0.05-0.003,0.108-0.1c1.571-2.652,3.357-5.126,5.71-7.162c0.275-0.238,0.38-0.732,0.456-1.128
				c0.337-1.749,0.532-3.532,0.969-5.254c0.613-2.415,1.495-4.763,2.076-7.185c0.577-2.403,0.975-4.86,0.245-7.53
				C503.946,755.711,499.665,764.771,502.282,776.031z M488.497,855.808c0.79-4.044,2.385-7.716,5.544-10.566
				c0.19-0.171,0.328-0.575,0.27-0.817c-0.515-2.162-0.901-4.38-1.686-6.444c-0.652-1.716-1.974-3.19-4.035-3.045
				c-2.122,0.149-2.855,1.925-3.418,3.698c-0.04,0.125-0.064,0.255-0.099,0.382c-1.173,4.258-1.024,8.586-0.683,12.923
				c0.015,0.19,0.13,0.418,0.273,0.544C485.898,853.573,487.15,854.644,488.497,855.808z M499.158,867.068
				c-0.909,0.494-1.742,1.214-2.677,1.39c-1.327,0.25-1.762,1.026-2.076,2.142c-1.004,3.573-1.829,7.149-0.758,10.864
				c0.425,1.477,1.367,2.459,2.861,2.79c1.449,0.321,2.546-0.379,3.437-1.459c1.968-2.387,2.837-5.219,3.163-8.221
				C503.581,870.212,502.421,868.977,499.158,867.068z M517.401,798.686c-3.727,2.617-6.803,5.474-7.406,9.908
				c-0.487,3.582-0.477,7.239-0.553,10.865c-0.051,2.42,0.135,4.844,0.222,7.48C515.958,818.458,516.896,808.798,517.401,798.686z
				 M622.017,736.779c-8.977,3.33-17.904,6.839-26.254,12.03c3.344-0.112,6.49-0.361,9.629-0.284
				c3.128,0.077,6.249,0.479,9.068,0.714C616.963,745.112,619.477,740.968,622.017,736.779z M620.179,735.969
				c-0.378-0.085-0.755-0.242-1.133-0.242c-2.49-0.004-4.991-0.117-7.468,0.073c-4.839,0.371-9.52,1.482-13.937,3.556
				c-0.371,0.174-0.799,0.46-0.961,0.807c-1.263,2.698-2.466,5.422-3.726,8.223C601.5,743.157,610.739,739.463,620.179,735.969z
				 M512.632,779.662c-7.382,5.238-10.996,13.88-10.201,22.006c3.147-4.13,6.307-8.263,9.151-12.601
				C513.414,786.273,513.409,783.031,512.632,779.662z M502.089,790.17c0.091-0.022,0.181-0.045,0.272-0.067
				c0.819-1.432,1.417-3.066,2.503-4.254c2.119-2.318,4.475-4.429,6.819-6.529c0.535-0.48,0.87-0.831,0.599-1.498
				c-1.093-2.696-2.207-5.383-3.363-8.194c-2.803,2.932-4.848,6.075-6.344,9.572c-0.254,0.593-0.455,1.261-0.465,1.898
				C502.062,784.12,502.089,787.145,502.089,790.17z M486.224,705.509c1.637,3.576,3.247,6.811,4.61,10.148
				c1.349,3.305,2.449,6.712,3.614,9.953c0.598-1.925,1.001-3.972,1.866-5.802c0.878-1.859,2.211-3.502,3.418-5.351
				C496.179,710.435,491.216,708.194,486.224,705.509z M499.536,802.176c1.014-7.153-4.423-16.101-11.301-18.173
				c-0.274,4.029-0.136,7.817,3.197,10.758C494.182,797.188,496.848,799.71,499.536,802.176z M485.222,706.798
				c0.068,0.693,0.161,1.385,0.2,2.08c0.224,3.931-0.404,7.776-1.246,11.59c-0.208,0.942-0.044,1.385,0.914,1.882
				c1.882,0.975,3.642,2.201,5.385,3.42c0.903,0.631,1.66,1.47,2.484,2.216C491.057,720.646,489.037,713.396,485.222,706.798z
				 M513.998,776.731c0.107-0.012,0.214-0.024,0.322-0.036c-1.63-6.411-1.644-12.827-0.194-19.251
				c-1.032,2.499-1.937,5.006-2.867,7.505c-0.573,1.54-0.666,3.094-0.083,4.631C512.084,771.977,513.054,774.349,513.998,776.731z"
				/>
			<path style="fill:#8E7C54;" d="M496.378,848.115c1.409-0.117,2.588-0.216,3.822-0.319c-0.114,1.104-0.858,1.427-1.716,1.503
				C497.671,849.37,496.839,849.317,496.378,848.115z"/>
			<path style="fill:#8E7C54;" d="M511.92,851.639c-0.274,0.392-0.388,0.661-0.466,0.651c-0.602-0.079-1.334-0.043-1.751-0.381
				c-0.361-0.293-0.385-1.025-0.498-1.576c-0.015-0.074,0.415-0.358,0.483-0.312C510.442,850.527,511.163,851.079,511.92,851.639z"
				/>
			<path style="fill:#8E7C54;" d="M485.196,857.964c0.561,0.75,0.127,1.387-0.498,1.668c-0.647,0.291-1.527,0.486-2.153,0.274
				c-0.591-0.2-0.283-0.76,0.293-0.983C483.584,858.634,484.32,858.321,485.196,857.964z"/>
			<path style="fill:#8E7C54;" d="M490.573,836.492c0.595,0.858,0.261,1.596-0.412,1.934c-0.788,0.396-1.729,0.547-2.62,0.632
				c-0.189,0.018-0.449-0.708-0.614-0.987C488.29,837.48,489.404,836.998,490.573,836.492z"/>
			<path style="fill:#8E7C54;" d="M500.301,869.304c0.099,1.371-0.689,2.079-1.819,1.599c-0.364-0.155-0.547-0.737-0.813-1.124
				c0.356-0.083,0.709-0.182,1.068-0.246C499.222,869.447,499.711,869.389,500.301,869.304z"/>
		</g>
	</g>
	<g>
		<g>
			<g>
				<path style="fill:#65402E;" d="M438.234,796.545c0-4.632-3.755-8.388-8.388-8.388c-4.632,0-8.388,3.755-8.388,8.388
					c0,4.197,3.086,7.664,7.11,8.28v-5.859h-2.126v-2.421h2.126V794.7c0-2.099,1.25-3.258,3.163-3.258
					c0.916,0,1.875,0.164,1.875,0.164v2.061h-1.056c-1.04,0-1.365,0.646-1.365,1.308v1.571h2.323l-0.371,2.421h-1.951v5.85
					C435.18,804.174,438.234,800.721,438.234,796.545z"/>
			</g>
			<g>
				<path style="fill:#65402E;" d="M471.652,792.667h-3.92c-1.117,0-2.026,0.909-2.026,2.026v3.92c0,1.117,0.909,2.026,2.026,2.026
					h3.92c1.117,0,2.026-0.909,2.026-2.026v-3.92C473.678,793.576,472.769,792.667,471.652,792.667z M469.732,799.071
					c-1.333,0-2.418-1.085-2.418-2.418c0-1.333,1.085-2.418,2.418-2.418c1.333,0,2.418,1.085,2.418,2.418
					C472.151,797.986,471.066,799.071,469.732,799.071z M472.292,794.648c-0.318,0-0.576-0.258-0.576-0.576
					c0-0.318,0.258-0.576,0.576-0.576s0.576,0.258,0.576,0.576C472.867,794.39,472.609,794.648,472.292,794.648z"/>
				<path style="fill:#65402E;" d="M469.692,788.158L469.692,788.158c-4.682,0-8.478,3.796-8.478,8.478s3.796,8.478,8.478,8.478h0
					c4.682,0,8.478-3.796,8.478-8.478S474.374,788.158,469.692,788.158z M474.602,798.613c0,1.626-1.323,2.949-2.95,2.949h-3.92
					c-1.626,0-2.949-1.323-2.949-2.949v-3.92c0-1.626,1.323-2.949,2.949-2.949h3.92c1.626,0,2.95,1.323,2.95,2.949V798.613z"/>
				<circle style="fill:#65402E;" cx="469.732" cy="796.653" r="1.549"/>
			</g>
			<g>
				<path style="fill:#65402E;" d="M509.556,788.175L509.556,788.175c-4.682,0-8.478,3.796-8.478,8.478
					c0,4.682,3.796,8.478,8.478,8.478h0c4.682,0,8.478-3.796,8.478-8.478C518.034,791.971,514.239,788.175,509.556,788.175z
					 M514.221,793.849c0,0.024,0,0.081-0.048,0.146c-0.213,0.287-0.444,0.544-0.73,0.759c-0.041,0.031-0.111,0.064-0.111,0.123
					c0,1.508-0.385,3.015-1.485,4.107c-1.4,1.391-3.5,1.769-5.365,1.254c-0.361-0.1-0.706-0.24-1.038-0.415
					c-0.11-0.06-0.217-0.122-0.323-0.192c-0.027-0.022-0.047-0.042-0.024-0.056c0.023-0.011,0.04-0.012,0.124,0
					c0.521,0.051,1.059-0.026,1.552-0.199c0.271-0.095,0.854-0.285,1.022-0.542c0.004-0.006,0.008-0.006,0.012-0.012
					c-0.068-0.016-0.136-0.016-0.204-0.028c-0.507-0.145-1.183-0.399-1.496-1.253c-0.02-0.05,0-0.076,0.052-0.066
					c0.417,0.033,0.567,0.01,0.712-0.022c-0.082-0.014-0.165-0.042-0.241-0.074c-0.638-0.243-1.104-0.865-1.189-1.538
					c-0.01-0.078-0.016-0.144-0.012-0.216c0.004-0.05,0.026-0.066,0.07-0.038c0.328,0.17,0.696,0.21,0.726,0.203
					c-0.082-0.064-0.157-0.134-0.231-0.203c-0.553-0.524-0.768-1.591-0.325-2.255c0.036-0.054,0.06-0.054,0.104-0.004
					c1.012,1.153,2.259,1.692,3.763,1.915c0.04,0.006,0.044,0,0.038-0.044c-0.039-0.265-0.044-0.524,0.02-0.786
					c0.066-0.272,0.196-0.528,0.372-0.745c0.17-0.21,0.383-0.384,0.623-0.509c0.239-0.125,0.503-0.201,0.772-0.218
					c0.276-0.018,0.557,0.026,0.814,0.131c0.195,0.08,0.369,0.188,0.53,0.325c0.034,0.028,0.064,0.062,0.096,0.098
					c0.02,0.02,0.044,0.028,0.076,0.02c0.385-0.096,0.746-0.232,1.095-0.419c0.016-0.008,0.029-0.012,0.049-0.004
					c0.016,0.012,0.01,0.032,0.002,0.048c-0.063,0.204-0.173,0.393-0.307,0.559c-0.088,0.109-0.306,0.378-0.454,0.403
					c0.313-0.053,0.634-0.132,0.924-0.263c0.037-0.017,0.038-0.024,0.038,0C514.221,793.841,514.221,793.845,514.221,793.849z"/>
			</g>
			<g>
				<path style="fill:#65402E;" d="M550.775,796.607l-2.207-1.201c-0.09-0.052-0.4,0.014-0.4,0.118v2.342
					c0,0.103,0.307,0.168,0.398,0.119l2.306-1.141C550.964,796.794,550.867,796.66,550.775,796.607z"/>
				<path style="fill:#65402E;" d="M549.411,788.014L549.411,788.014c-4.682,0-8.478,3.796-8.478,8.478s3.796,8.478,8.478,8.478h0
					c4.682,0,8.478-3.796,8.478-8.478S554.093,788.014,549.411,788.014z M553.895,797.862c0,1.111-0.9,2.011-2.011,2.011h-5.142
					c-1.111,0-2.011-0.9-2.011-2.011v-2.393c0-1.111,0.9-2.011,2.011-2.011h5.142c1.111,0,2.011,0.9,2.011,2.011V797.862z"/>
			</g>
		</g>
		<g>
			<circle style="fill:#65402E;" cx="63.811" cy="55.915" r="19.286"/>
			<g>
				<g>
					<path style="fill:#DDD1C3;" d="M70.258,57.03c-0.454,0.71-0.881,1.378-1.324,2.07c0.536-0.06,1.059-0.152,1.585-0.173
						c1.393-0.055,2.768,0.08,4.036,0.704c0.486,0.239,0.961,0.562,1.339,0.947c0.828,0.841,0.833,1.836,0.079,2.744
						c-0.679,0.816-1.594,1.299-2.541,1.718c-2.426,1.075-4.979,1.656-7.607,1.953c-2.859,0.323-5.695,0.23-8.466-0.575
						c-1.023-0.297-2.017-0.741-2.962-1.238c-0.548-0.288-1.031-0.763-1.436-1.244c-0.885-1.052-0.674-2.474,0.436-3.295
						c1.001-0.739,2.182-0.903,3.375-1.011c0.217-0.02,0.435-0.026,0.652-0.04c0.009-0.001,0.016-0.023,0.043-0.063
						c-0.05-0.066-0.098-0.149-0.164-0.216c-1.71-1.734-2.439-3.875-2.623-6.253c-0.074-0.953-0.188-1.903-0.294-2.853
						c-0.128-1.146,0.222-2.13,1.019-2.943c1.244-1.268,2.79-2.012,4.471-2.517c2.738-0.823,5.468-0.834,8.189,0.065
						c0.709,0.235,1.385,0.542,1.877,1.134c0.165,0.198,0.314,0.421,0.412,0.657c0.054,0.131-0.012,0.313-0.09,0.48
						c-0.602-1.298-1.796-1.491-2.951-1.696c-3.476-0.617-6.736-0.014-9.745,1.84c-0.478,0.294-0.924,0.666-1.313,1.071
						c-1.184,1.231-0.85,2.812,0.715,3.478c1.137,0.484,2.339,0.678,3.566,0.737c2.04,0.098,4.079,0.052,6.053-0.505
						c0.837-0.236,1.629-0.675,2.392-1.108c0.58-0.329,0.947-0.879,1.094-1.561c0.093-0.433-0.005-0.798-0.34-1.053
						c-0.295-0.224-0.627-0.452-0.978-0.544c-2.616-0.689-5.238-0.747-7.796,0.212c-0.799,0.3-1.532,0.822-2.23,1.331
						c-0.544,0.397-0.45,0.951,0.208,1.126c0.974,0.26,1.981,0.469,2.985,0.533c1.807,0.115,3.553-0.266,5.224-0.965
						c0.239-0.1,0.484-0.22,0.677-0.387c0.147-0.127,0.301-0.349,0.291-0.519c-0.007-0.125-0.269-0.329-0.425-0.338
						c-0.836-0.045-1.687-0.131-2.51-0.029c-1.075,0.133-2.129,0.43-3.192,0.656c-0.099,0.021-0.2,0.061-0.297,0.054
						c-0.089-0.007-0.174-0.066-0.26-0.103c0.057-0.09,0.103-0.191,0.176-0.265c0.046-0.046,0.132-0.052,0.201-0.075
						c1.737-0.581,3.511-0.907,5.349-0.769c0.3,0.022,0.607,0.081,0.888,0.183c0.637,0.232,0.822,0.903,0.355,1.401
						c-0.291,0.311-0.656,0.588-1.039,0.773c-2.617,1.266-5.357,1.563-8.192,0.94c-0.363-0.08-0.728-0.224-1.045-0.417
						c-0.847-0.515-1.01-1.53-0.365-2.289c0.873-1.028,2.019-1.678,3.282-2.061c2.644-0.8,5.293-0.656,7.875,0.269
						c0.611,0.219,1.132,0.734,1.638,1.176c0.177,0.155,0.191,0.501,0.269,0.763c0.041,0.137,0.058,0.281,0.201,0.513
						c0.15-0.186,0.28-0.395,0.454-0.555c0.996-0.912,2.142-1.54,3.52-1.477c0.568,0.026,1.185,0.224,1.673,0.521
						c1.244,0.755,1.36,2.403,0.234,3.327c-0.611,0.501-1.324,0.892-2.028,1.261c-1.06,0.556-2.111,1.123-2.971,1.963
						c-0.342,0.334-0.63,0.762-0.819,1.201c-0.188,0.435-0.163,0.948,0.273,1.27c0.447,0.33,0.973,0.524,1.504,0.222
						c0.272-0.155,0.538-0.404,0.685-0.676c0.18-0.333-0.099-0.616-0.463-0.502c-0.33,0.104-0.641,0.27-0.967,0.389
						c-0.105,0.039-0.29,0.069-0.336,0.015c-0.064-0.076-0.078-0.252-0.035-0.352c0.219-0.506,1.495-0.9,1.974-0.625
						c0.504,0.289,0.633,1.014,0.279,1.576c-0.755,1.198-2.684,1.319-3.583,0.224C70.364,57.174,70.314,57.104,70.258,57.03z
						 M70.384,50.199c-0.738,1.059-1.757,1.714-2.912,2.087c-1.166,0.377-2.374,0.682-3.587,0.84
						c-2.805,0.365-5.619,0.573-8.303-0.825c0.03,0.189,0.051,0.344,0.081,0.497c0.367,1.907,0.805,3.767,2.201,5.263
						c2.029,2.173,4.527,2.957,7.382,2.429c1.736-0.321,2.93-1.566,3.81-3.04C70.392,55.211,70.478,52.718,70.384,50.199z
						 M59.408,60.826c-0.748-0.503-1.502-0.997-2.501-0.667c-0.877,0.291-1.792,0.477-2.645,0.824
						c-0.363,0.148-0.691,0.54-0.89,0.901c-0.35,0.633-0.136,1.252,0.533,1.896c0.919,0.885,2.075,1.331,3.263,1.68
						c2.568,0.753,5.192,0.95,7.854,0.706c2.928-0.269,5.774-0.888,8.453-2.118c0.709-0.326,1.364-0.829,1.944-1.359
						c0.521-0.477,0.508-1.027,0.022-1.55c-0.357-0.384-0.805-0.719-1.273-0.956c-1.431-0.725-2.981-0.827-4.55-0.698
						c-0.471,0.039-0.976,0.085-1.39,0.285c-0.457,0.219-0.827,0.618-1.287,0.981c0.295,0.04,0.536,0.054,0.769,0.107
						c0.717,0.163,1.461,0.264,2.137,0.534c0.8,0.32,0.881,0.996,0.187,1.507c-0.528,0.389-1.139,0.731-1.765,0.907
						c-2.833,0.797-5.727,0.904-8.639,0.572c-0.527-0.06-1.071-0.189-1.548-0.413c-1.192-0.56-1.263-1.693-0.162-2.403
						C58.377,61.266,58.899,61.073,59.408,60.826z M62.872,63.877c1.503-0.133,2.726-0.173,3.924-0.371
						c0.874-0.145,1.724-0.472,2.563-0.778c0.237-0.087,0.395-0.387,0.589-0.59c-0.221-0.149-0.423-0.368-0.667-0.436
						c-0.905-0.25-1.823-0.453-2.739-0.664c-0.088-0.02-0.2,0.016-0.289,0.055c-1.794,0.767-3.625,0.699-5.458,0.202
						c-0.492-0.133-0.904-0.092-1.324,0.149c-0.239,0.137-0.511,0.238-0.708,0.421c-0.255,0.236-0.632,0.541-0.627,0.811
						c0.008,0.422,0.505,0.566,0.886,0.628C60.391,63.528,61.767,63.716,62.872,63.877z M71.02,53.719
						c1.328-1.316,2.92-1.992,4.465-2.75c0.233-0.114,0.454-0.26,0.665-0.413c0.795-0.574,0.764-1.466-0.069-1.988
						c-0.609-0.382-1.278-0.457-1.969-0.319c-1.132,0.227-2.077,0.806-2.86,1.636c-0.141,0.15-0.187,0.434-0.192,0.659
						c-0.021,0.868-0.007,1.736-0.009,2.604C71.048,53.3,71.034,53.452,71.02,53.719z"/>
				</g>
			</g>
		</g>
	</g>
	<g>
		<g>
			
				<line style="fill:none;stroke:#65402E;stroke-width:1.6632;stroke-miterlimit:10;" x1="48.787" y1="664.742" x2="163.851" y2="664.742"/>
			
				<line style="fill:none;stroke:#65402E;stroke-width:1.6632;stroke-miterlimit:10;" x1="246.404" y1="664.742" x2="361.468" y2="664.742"/>
		</g>
		
			<line style="fill:none;stroke:#65402E;stroke-width:1.6486;stroke-miterlimit:10;" x1="46.482" y1="264.043" x2="503.851" y2="264.043"/>
		<g>
			
				<line style="fill:none;stroke:#65402E;stroke-width:1.6486;stroke-miterlimit:10;" x1="85.8" y1="69.892" x2="195.56" y2="69.892"/>
			
				<line style="fill:none;stroke:#65402E;stroke-width:1.6486;stroke-miterlimit:10;" x1="85.8" y1="42.954" x2="195.56" y2="42.954"/>
		</g>
	</g>
</g>
<g id="TEXTS">
	<g>
		<text transform="matrix(1 0 0 1 93.2822 62.0636)" style="fill:#65402E; font-family:'PatuaOne-Regular'; font-size:18.6244px;">Coffee Shop</text>
		<g>
			<g>
				<text transform="matrix(1 0 0 1 440.3923 46.7632)" style="fill:#65402E; font-family:'Oxygen-Regular'; font-size:9.248px;">Lorem ipsum dolor sit</text>
				<text transform="matrix(1 0 0 1 440.3923 62.1436)" style="fill:#65402E; font-family:'Oxygen-Regular'; font-size:9.248px;">Consectetuer adipiscing elit</text>
				<text transform="matrix(1 0 0 1 440.3923 77.3638)" style="fill:#65402E; font-family:'Oxygen-Regular'; font-size:9.248px;">Sed diam nonummy nibh</text>
			</g>
		</g>
		<g>
			<rect x="44.525" y="280.468" style="fill:none;" width="490.613" height="306.128"/>
			<text transform="matrix(1 0 0 1 44.5251 287.5685)"><tspan x="0" y="0" style="fill:#65402E; font-family:'Oxygen-Regular'; font-size:10px;">Lorem ipsum dolor sit amet, consectetuer adipiscing elit, sed diam nonummy nibh euismod tincidunt ut laoreet </tspan><tspan x="0" y="18" style="fill:#65402E; font-family:'Oxygen-Regular'; font-size:10px;">dolore magna aliquam erat volutpat. Ut wisi enim ad minim veniam, quis nostrud exerci tation ullamcorper suscipit </tspan><tspan x="0" y="36" style="fill:#65402E; font-family:'Oxygen-Regular'; font-size:10px;">lobortis nisl ut aliquip ex ea commodo consequat. Duis autem vel eum iriure dolor in hendrerit in vulputate velit esse </tspan><tspan x="0" y="54" style="fill:#65402E; font-family:'Oxygen-Regular'; font-size:10px;">molestie consequat, vel illum dolore eu feugiat nulla facilisis at vero eros et accumsan et iusto odio dignissim qui </tspan><tspan x="0" y="72" style="fill:#65402E; font-family:'Oxygen-Regular'; font-size:10px;">blandit praesent luptatum zzril delenit augue duis dolore te feugait nulla facilisi.</tspan><tspan x="0" y="90" style="fill:#65402E; font-family:'Oxygen-Regular'; font-size:10px;">Lorem ipsum dolor sit amet, cons ectetuer adipiscing elit, sed diam nonummy nibh euismod tincidunt ut laoreet </tspan><tspan x="0" y="108" style="fill:#65402E; font-family:'Oxygen-Regular'; font-size:10px;">dolore magna aliquam erat volutpat. Ut wisi enim ad minim veniam, quis nostrud exerci tation ullamcorper suscipit </tspan><tspan x="0" y="126" style="fill:#65402E; font-family:'Oxygen-Regular'; font-size:10px;">lobortis nisl ut aliquip ex ea commodo consequat.</tspan><tspan x="0" y="160" style="fill:#65402E; font-family:'Oxygen-Regular'; font-size:10px;">Lorem ipsum dolor sit amet, consectetuer adipiscing elit, sed diam nonummy nibh euismod tincidunt ut laoreet </tspan><tspan x="0" y="178" style="fill:#65402E; font-family:'Oxygen-Regular'; font-size:10px;">dolore magna aliquam erat volutpat. Ut wisi enim ad minim veniam, quis nostrud exerci tation ullamcorper suscipit </tspan><tspan x="0" y="196" style="fill:#65402E; font-family:'Oxygen-Regular'; font-size:10px;">lobortis nisl ut aliquip ex ea commodo consequat. Duis autem vel eum iriure dolor in hendrerit in vulputate velit esse </tspan><tspan x="0" y="214" style="fill:#65402E; font-family:'Oxygen-Regular'; font-size:10px;">molestie consequat, vel illum dolore eu feugiat nulla facilisis at vero eros et accumsan et iusto odio dignissim qui </tspan><tspan x="0" y="232" style="fill:#65402E; font-family:'Oxygen-Regular'; font-size:10px;">blandit praesent luptatum zzril delenit augue duis dolore te feugait nulla facilisi.</tspan><tspan x="0" y="250" style="fill:#65402E; font-family:'Oxygen-Regular'; font-size:10px;">Lorem ipsum dolor sit amet, cons ectetuer adipiscing elit, sed diam nonummy nibh euismod tincidunt ut laoreet </tspan><tspan x="0" y="268" style="fill:#65402E; font-family:'Oxygen-Regular'; font-size:10px;">dolore magna aliquam erat volutpat. Ut wisi enim ad minim veniam, quis </tspan></text>
		</g>
		<g>
			<text transform="matrix(1 0 0 1 45.7334 252.3374)" style="fill:#65402E; font-family:'Oxygen-Bold'; font-size:15.6714px;">LOREM IPSUM DOLOR SIT AMET</text>
		</g>
		<g>
			<g>
				<g>
					<text transform="matrix(1 0 0 1 49.4922 680.375)" style="fill:#65402E; font-family:'Oxygen-Regular'; font-size:11.2037px;">Lorem ipsum dolor sit</text>
				</g>
			</g>
			<g>
				<g>
					
						<text transform="matrix(1 0 0 1 247.1092 680.375)" style="fill:#65402E; font-family:'Oxygen-Regular'; font-size:11.2037px;">Lorem ipsum dolor sit</text>
				</g>
			</g>
		</g>
		<g>
			<text transform="matrix(1 0 0 1 37.7957 803.3447)" style="fill:#65402E; font-family:'Oxygen-Regular'; font-size:10.6143px;">+ 00 1 212 324 4152</text>
			<text transform="matrix(1 0 0 1 151.231 802.2682)" style="fill:#65402E; font-family:'Oxygen-Regular'; font-size:10.6143px;">info@coffeeshop.com</text>
			<text transform="matrix(1 0 0 1 281.5422 802.2685)" style="fill:#65402E; font-family:'Oxygen-Bold'; font-size:10.6143px;">www.coffeeshop.com</text>
		</g>
	</g>
</g>
</svg>
